<svg id="b663ce53-456e-43f9-a3d2-ecc96203d4ce" data-name="Calque 1" xmlns="http://www.w3.org/2000/svg" viewBox="0 0 77.9 149.73"><g id="a8a19b68-d1a7-406c-b8e4-c968e4a66170" data-name="chatcoté"><path d="M25.31,22.86a7.72,7.72,0,0,0,.86,3.78A3.85,3.85,0,0,0,27.5,28c.28.16.57.31.87.46s.57.33.85.51c2.23,1.42,4.33,3,6.46,4.57,1.06.78,2.12,1.55,3.2,2.3a9.07,9.07,0,0,0,3.46,1.78,9.81,9.81,0,0,0,3.89-.14,5.68,5.68,0,0,0,3.29-1.94l.06.14A6.45,6.45,0,0,1,47,34.52a21.33,21.33,0,0,1-2.24-1.78,35,35,0,0,1-3.89-4.19,26.09,26.09,0,0,1-3.09-4.81,8.75,8.75,0,0,1-1-5.58v0a5.09,5.09,0,0,1,.11-1.65,3,3,0,0,1,.14-.39,1.86,1.86,0,0,1,.1-.2l0-.05,0,0,0,0a.16.16,0,0,1,.14,0c.06,0,.06.14,0,.15l0,0s0,0,0,0a1.54,1.54,0,0,0,.29.64,13.15,13.15,0,0,0,1,1.26,7.37,7.37,0,0,0,.54.57,1.85,1.85,0,0,0,.67.34,6.54,6.54,0,0,0,3.14,0,2.93,2.93,0,0,0,.74-.25.71.71,0,0,0,.26-.21c.07-.09,0-.14,0-.28a10,10,0,0,0-.72-1.42c-.27-.47-.55-.92-.85-1.37-.15-.22-.3-.44-.46-.65a2.65,2.65,0,0,0-.25-.3.25.25,0,0,0-.27-.08A3.84,3.84,0,0,0,40,15a10.8,10.8,0,0,0-1.28.94c-.21.17-.4.36-.64.53a1.39,1.39,0,0,1-.84.23c-.56,0-1.08-.12-1.62-.17-1.07-.11-2.14-.16-3.22-.18l0-.27a4.69,4.69,0,0,0,2.82-.83c.89-.5,1.75-1.06,2.63-1.59s1.79-1,2.72-1.49a12.13,12.13,0,0,1,1.44-.6,3.47,3.47,0,0,1,.79-.17,1,1,0,0,1,.46.07.43.43,0,0,1,.24.48v-.1A3.31,3.31,0,0,1,44,13.38a.63.63,0,0,1-.22.44.63.63,0,0,1-.49.1,1.73,1.73,0,0,1-.74-.41,3.87,3.87,0,0,1-1.21-2.88,2,2,0,0,1,.6-1.51,1.12,1.12,0,0,1,.84-.25,1.77,1.77,0,0,1,.78.3,6.36,6.36,0,0,1,1.92,2.48,25.11,25.11,0,0,1,1.85,5.9,60.55,60.55,0,0,1,.89,6.12v.11l-.1.06a11.23,11.23,0,0,1-3.76,1.27,10.82,10.82,0,0,1-4-.1,7.89,7.89,0,0,1-3.57-1.73A8.08,8.08,0,0,1,34.56,20l.25.12a5.92,5.92,0,0,1-3.31.08,4.39,4.39,0,0,1-2.64-2L28.73,18l.24-.06a1.66,1.66,0,0,1,1.26.25,5.94,5.94,0,0,1,1,.68,14.94,14.94,0,0,1,1.65,1.63,18.32,18.32,0,0,1,1.43,1.83c.21.32.42.64.61,1a2.84,2.84,0,0,1,.39,1.19.52.52,0,0,1-.23.42,1.69,1.69,0,0,1-.35.1,2.63,2.63,0,0,1-.63,0,6.23,6.23,0,0,1-1.15-.28,10.27,10.27,0,0,1-2.11-1A7,7,0,0,1,29,22.11a3.32,3.32,0,0,1-.77-2.28l0-.31.28.12a8,8,0,0,1,3.3,2.72,13.18,13.18,0,0,1,1.89,3.81,8.81,8.81,0,0,1,.27,1,4.5,4.5,0,0,1,.07.56.53.53,0,0,1,0,.2l0,.08a.31.31,0,0,1-.26.14.52.52,0,0,1-.19-.11l-.17-.14A18.46,18.46,0,0,0,31.61,27c-1.27-.59-2.53-1.2-3.78-1.85h0a6.36,6.36,0,0,1-2.3-3.21A6.22,6.22,0,0,1,25.79,18a11.7,11.7,0,0,1,2-3.37l.16-.19.09-.1.05-.05a.4.4,0,0,1,.21-.09.6.6,0,0,1,.38.13l.22.16a6.68,6.68,0,0,1,.7.71,9.08,9.08,0,0,1,.62.77,3,3,0,0,1,.5.94.46.46,0,0,1,0,.21.44.44,0,0,1-.19.29.59.59,0,0,1-.43,0,2.28,2.28,0,0,1-.5-.21,5,5,0,0,0-.83-.37,1.19,1.19,0,0,0-.77,0,1.17,1.17,0,0,0-.55.55c-.08.13-.14.27-.22.42a1.86,1.86,0,0,1-.17.25.4.4,0,0,1-.23.15.44.44,0,0,1-.2,0l-.11-.06a.67.67,0,0,1-.25-.67,3.8,3.8,0,0,1,.06-.5,9.9,9.9,0,0,0,.13-1.89,1.31,1.31,0,0,1,.66-1,5.15,5.15,0,0,1,.92-.44A13,13,0,0,1,30,13.2a26.58,26.58,0,0,1,3.88-.4h.25a.39.39,0,0,1,.14,0c.12-.07.25-.11.38-.2s.53-.34.79-.52c.51-.37,1-.76,1.51-1.16,1-.81,2-1.65,2.93-2.5l.72-.63a1.31,1.31,0,0,1,.51-.33,5.15,5.15,0,0,1,.53-.07,18.21,18.21,0,0,1,2,0,38.36,38.36,0,0,1,3.86.47c.63.11,1.27.25,1.9.42a5.59,5.59,0,0,1,1.86.78,9,9,0,0,1,2.4,3.15,22.37,22.37,0,0,1,2.11,7.49l-.52-.17a16.23,16.23,0,0,0,3.47-6.7,25.16,25.16,0,0,0,.74-7.59A26.62,26.62,0,0,0,59,1.45c-.07-.31-.13-.63-.22-.9l0-.05s0,0,0,0l0,0s0,0,.12.05A.3.3,0,0,0,59.2.51l0,0a.16.16,0,0,0,0-.09v0a3.38,3.38,0,0,1-.08.34c-.08.18-.16.32-.24.48a17.35,17.35,0,0,1-1.12,1.63c-1.57,2.07-3.26,4-5,6l-.14-.52a15.78,15.78,0,0,1,3.76,2.12,17.1,17.1,0,0,1,3.07,3,7.47,7.47,0,0,0,1.37,1.47,2.79,2.79,0,0,0,1.77.54A5.29,5.29,0,0,0,66,13.54L66,13.7c-.11-.14.08.55.5.35.13-.09.08-.07.09-.08l0,0v0l0,.05,0,.11-.08.22-.17.44-.33.89-.67,1.77L63.88,21c-.48,1.17-1,2.34-1.49,3.5-.27.58-.54,1.15-.84,1.72-.15.28-.31.57-.49.85a4.92,4.92,0,0,1-.31.41,1,1,0,0,1-.57.41l-.16,0-.14-.13a11.15,11.15,0,0,1-2.05-2.63A7.53,7.53,0,0,1,57,21.87a10.5,10.5,0,0,1,2.13-6.22,22.15,22.15,0,0,1,4.56-4.71A23.16,23.16,0,0,1,66.38,9.1a11.48,11.48,0,0,1,1.49-.74,5.25,5.25,0,0,1,.82-.27A3.11,3.11,0,0,1,69.16,8h.27a1.71,1.71,0,0,1,.34.13l.12.06,0,.15a9.22,9.22,0,0,1,0,2.73c-.11.87-.24,1.74-.39,2.6-.29,1.72-.64,3.42-1,5.13L66.25,29a69.54,69.54,0,0,0-1.54,10.24,31.49,31.49,0,0,0,0,5.14A8.88,8.88,0,0,0,66.26,49l0,0v0a43.81,43.81,0,0,1,3.61,10.62,41.21,41.21,0,0,1,.82,11.19A32.6,32.6,0,0,1,68,81.81c-.41.84-.74,1.73-1.23,2.54l-1.48,2.4L63.84,89.1a21.76,21.76,0,0,0-1.41,2.37l-1.26,2.45c-.4.83-.73,1.69-1.09,2.54l-.54,1.27c-.17.43-.3.87-.46,1.31l-.89,2.61a88.84,88.84,0,0,0-2.47,10.8q-.86,5.47-1.2,11c-.25,3.7-.27,7.39-.32,11.12a12.55,12.55,0,0,1-.13,1.46,7.38,7.38,0,0,1-.41,1.41A11.78,11.78,0,0,1,52.32,140a8.29,8.29,0,0,1-2,2.12,3.79,3.79,0,0,1-1.42.66,2.65,2.65,0,0,1-1.64-.15,4.6,4.6,0,0,1-2.07-2.23c-.44-.89-.74-1.73-1.1-2.6-.68-1.73-1.35-3.47-2-5.22-2.56-7-4.91-14-6.8-21.25A96.35,96.35,0,0,1,33,100.4c-.15-.92-.28-1.84-.34-2.78a26.52,26.52,0,0,1-.18-2.82,17.9,17.9,0,0,1,.1-2.83l.16-1.43c.06-.46.15-.89.19-1.34A14.57,14.57,0,0,0,30,79.09a20.71,20.71,0,0,0-8.33-6.77,5.12,5.12,0,0,0-2.42-.49.77.77,0,0,0-.64.55,3.16,3.16,0,0,0-.12,1.18,32.92,32.92,0,0,0,1.12,5.35,27.77,27.77,0,0,1,1,5.57,9,9,0,0,1,0,1.46,6.85,6.85,0,0,1-.39,1.46c-.19.45-.43.87-.65,1.3l-.77,1.2c-2.17,3.08-4.65,5.85-7,8.72A96.61,96.61,0,0,0,5,107.46c-.52.77-.95,1.58-1.43,2.36s-.87,1.62-1.26,2.45a23.82,23.82,0,0,0-1,2.54,13.17,13.17,0,0,0-.51,2.66,23.85,23.85,0,0,0,1.83,10.71,39.37,39.37,0,0,0,5.44,9.56,27.67,27.67,0,0,0,8.1,7.34,19.87,19.87,0,0,0,5.16,1.8c1.8.43,3.62.76,5.45,1q5.49.83,11.05,1.11A91,91,0,0,0,60,147.84,30,30,0,0,0,70.29,144c.37-.27.77-.51,1.12-.81s.7-.59,1-.91c.62-.67,1.22-1.37,1.79-2.1a20.67,20.67,0,0,0,2.91-4.68,5.4,5.4,0,0,0,.48-2.64,2.63,2.63,0,0,0-1.52-2,10.23,10.23,0,0,0-5.41-.51A8.9,8.9,0,0,0,68,131a1.55,1.55,0,0,0-.52.39.76.76,0,0,0-.14.6,2.46,2.46,0,0,0,.76,1.09,19.71,19.71,0,0,0,4.74,2.83l0,.1a20.21,20.21,0,0,1-4.8-2.83,2.58,2.58,0,0,1-.81-1.16,1,1,0,0,1,.16-.73,2,2,0,0,1,.57-.44,8.66,8.66,0,0,1,2.73-.66,10.37,10.37,0,0,1,5.54.48,2.91,2.91,0,0,1,1.67,2.22,5.73,5.73,0,0,1-.48,2.78,21,21,0,0,1-2.92,4.78c-.56.74-1.16,1.44-1.8,2.14-.33.33-.7.63-1.05,1s-.76.55-1.13.83a30.56,30.56,0,0,1-10.42,4,91.21,91.21,0,0,1-22.25,1.3q-5.58-.27-11.11-1.08c-1.84-.27-3.68-.6-5.5-1a20.35,20.35,0,0,1-5.32-1.84,28.17,28.17,0,0,1-8.33-7.49A39.39,39.39,0,0,1,2,128.44a24.54,24.54,0,0,1-1.92-11,14.1,14.1,0,0,1,.52-2.8,26.44,26.44,0,0,1,1-2.65c.39-.85.83-1.68,1.27-2.51s.93-1.63,1.45-2.41a99.28,99.28,0,0,1,6.7-9c2.35-2.88,4.82-5.67,6.91-8.67l.74-1.15c.19-.4.42-.79.58-1.19a5.73,5.73,0,0,0,.33-1.23,9.51,9.51,0,0,0,0-1.31,27.25,27.25,0,0,0-1-5.37,33.79,33.79,0,0,1-1.18-5.54A4,4,0,0,1,17.65,72,1.77,1.77,0,0,1,19,70.87a3.9,3.9,0,0,1,1.58.09,10.38,10.38,0,0,1,1.4.44,19,19,0,0,1,4.86,3,22.19,22.19,0,0,1,3.91,4.13,15.64,15.64,0,0,1,3.12,10.8c-.05.47-.15,1-.21,1.41l-.15,1.35a16.39,16.39,0,0,0-.09,2.72,25.32,25.32,0,0,0,.16,2.74c.06.91.19,1.83.33,2.74a99,99,0,0,0,2.28,10.84c1.87,7.16,4.2,14.21,6.75,21.17.64,1.74,1.3,3.48,2,5.2.34.84.68,1.75,1.06,2.53a3.76,3.76,0,0,0,1.61,1.8,2.21,2.21,0,0,0,2.18-.42,7.35,7.35,0,0,0,1.79-1.89,8.71,8.71,0,0,0,1.72-4.93c.06-3.7.09-7.44.34-11.15s.64-7.43,1.22-11.11a90.28,90.28,0,0,1,2.51-10.91l.91-2.65c.16-.44.3-.89.47-1.33l.54-1.29c.37-.86.7-1.73,1.11-2.58l1.29-2.49a25.61,25.61,0,0,1,1.43-2.42l1.5-2.36,1.44-2.34c.47-.79.8-1.65,1.2-2.47A31.85,31.85,0,0,0,69.9,70.86a40,40,0,0,0-.79-11,43.17,43.17,0,0,0-3.52-10.41l0,.07a9.65,9.65,0,0,1-1.7-5.1,33.13,33.13,0,0,1,0-5.27,70.79,70.79,0,0,1,1.57-10.36l2.28-10.16c.36-1.7.71-3.4,1-5.1.14-.85.28-1.7.38-2.55a8.88,8.88,0,0,0,0-2.46l.15.21h-.17a2.21,2.21,0,0,0-.33.05,5.4,5.4,0,0,0-.71.24,11.35,11.35,0,0,0-1.4.69,22.67,22.67,0,0,0-7,6.32,9.84,9.84,0,0,0-2,5.79,6.73,6.73,0,0,0,.77,2.94,10.72,10.72,0,0,0,1.91,2.45l-.3-.09c-.06,0,.09-.06.16-.17s.17-.22.26-.34.31-.52.46-.8c.29-.54.56-1.11.82-1.68.52-1.14,1-2.3,1.48-3.47l1.39-3.52.67-1.77.33-.88.17-.45.08-.22.05-.11,0-.06,0,0,0-.05,0-.05s0,0,.1-.08c.42-.2.61.5.5.36l-.08.16a7.92,7.92,0,0,1-1.69,1.42,4.65,4.65,0,0,1-2.14.71,3.57,3.57,0,0,1-2.19-.67,8.32,8.32,0,0,1-1.5-1.6,15.53,15.53,0,0,0-3-2.89,15,15,0,0,0-3.56-2l-.45-.17.31-.35c1.7-1.93,3.39-3.89,5-5.93.38-.51.76-1,1.08-1.56.06-.13.14-.27.19-.39a.65.65,0,0,1,0-.13s0-.06,0-.1a.36.36,0,0,1,0-.11.33.33,0,0,1,0-.06A.34.34,0,0,1,59,0c.13,0,.11,0,.13,0l.05,0,0,.07a1.12,1.12,0,0,1,.08.17,10.13,10.13,0,0,1,.24,1A26.93,26.93,0,0,1,60,5.22,25.85,25.85,0,0,1,59.23,13a16.82,16.82,0,0,1-3.61,6.94l-.44.49-.07-.66a21.61,21.61,0,0,0-2-7.28,8.4,8.4,0,0,0-2.21-3,4.86,4.86,0,0,0-1.68-.7c-.6-.17-1.23-.3-1.85-.41A37.55,37.55,0,0,0,43.53,8a14.83,14.83,0,0,0-1.88,0,2.68,2.68,0,0,0-.43,0s0,0-.11,0l-.18.15-.72.64c-1,.85-2,1.69-3,2.5-.5.4-1,.81-1.54,1.19-.27.18-.53.37-.83.54a4.12,4.12,0,0,1-.47.24l-.34.06h-.22a26.89,26.89,0,0,0-3.79.38,14,14,0,0,0-1.83.46c-.55.19-1.21.53-1.23.93a10.73,10.73,0,0,1-.14,1.95,3.71,3.71,0,0,0-.06.45c0,.14,0,.25,0,.21h0a.1.1,0,0,0-.09,0l0,0a.91.91,0,0,0,.1-.16c.07-.13.14-.28.23-.43a1.67,1.67,0,0,1,.8-.77,1.76,1.76,0,0,1,1.11,0,4.68,4.68,0,0,1,.93.42,1.79,1.79,0,0,0,.39.16s.12,0,0,0-.05.12-.07.06a5.44,5.44,0,0,0-1-1.48,6.65,6.65,0,0,0-.65-.65,1,1,0,0,0-.17-.13s-.14-.06-.06-.05.11,0,.1,0l0,0-.08.08-.15.17a11.36,11.36,0,0,0-1.92,3.22A5.75,5.75,0,0,0,26,21.79a5.9,5.9,0,0,0,2.11,2.95l0,0c1.23.64,2.49,1.25,3.75,1.85a19.06,19.06,0,0,1,1.9,1l.24.2c0,.05,0,0-.09,0s-.21.06-.21.1,0,0,0,0,0,0,0-.06a4.19,4.19,0,0,0-.06-.48c-.07-.33-.16-.67-.26-1a12.5,12.5,0,0,0-1.81-3.68,7.57,7.57,0,0,0-3.1-2.57l.31-.19a2.85,2.85,0,0,0,.67,2A6.75,6.75,0,0,0,31,23.29a10.1,10.1,0,0,0,2,1,6.67,6.67,0,0,0,1.07.26,2.22,2.22,0,0,0,.51,0,.87.87,0,0,0,.19-.05s0,0,0-.07a2.59,2.59,0,0,0-.34-1c-.17-.33-.38-.65-.58-1a19.93,19.93,0,0,0-1.39-1.79,16,16,0,0,0-1.6-1.59,7.68,7.68,0,0,0-.9-.63,1.35,1.35,0,0,0-.92-.23l.1-.29a4,4,0,0,0,2.39,1.81,5.47,5.47,0,0,0,3.08-.06l.18-.06.07.18A7.74,7.74,0,0,0,37,23a7.58,7.58,0,0,0,3.4,1.66,11.19,11.19,0,0,0,7.47-1.12l-.09.17a56.68,56.68,0,0,0-.87-6.08,24.89,24.89,0,0,0-1.81-5.82,6.05,6.05,0,0,0-1.79-2.36,1,1,0,0,0-1.24-.07,1.73,1.73,0,0,0-.49,1.27,3.61,3.61,0,0,0,1.1,2.64c.33.31.94.55.93.07A3,3,0,0,0,43.22,12l0-.06,0-.05c0-.12-.14-.2-.39-.18a3.6,3.6,0,0,0-.71.15,12.36,12.36,0,0,0-1.41.59c-.92.44-1.82.94-2.7,1.47S36.26,15,35.35,15.49a4.86,4.86,0,0,1-3,.85l0-.27a32,32,0,0,1,3.24.18c.53.05,1.08.15,1.59.17s.88-.33,1.31-.69a11.41,11.41,0,0,1,1.32-1,4.15,4.15,0,0,1,1.53-.67.55.55,0,0,1,.46.16,2.55,2.55,0,0,1,.27.32l.47.67c.3.45.59.91.86,1.38a11.17,11.17,0,0,1,.73,1.47.51.51,0,0,1,0,.49,1,1,0,0,1-.36.29,3.24,3.24,0,0,1-.79.28,7,7,0,0,1-3.27-.05,2.24,2.24,0,0,1-.75-.39c-.22-.2-.38-.4-.57-.6a13.85,13.85,0,0,1-1-1.28,1.41,1.41,0,0,1-.31-.83l0-.06h0s0,.08,0,.1.12,0,.12,0h0l0,0-.09.17a2.17,2.17,0,0,0-.12.36,4.6,4.6,0,0,0-.11,1.57v0a8.53,8.53,0,0,0,1,5.43,26,26,0,0,0,3,4.78,33.2,33.2,0,0,0,3.87,4.17,21,21,0,0,0,2.21,1.78,6.33,6.33,0,0,0,2.53,1.16l.15,0-.09.11a5.75,5.75,0,0,1-3.38,2,9.79,9.79,0,0,1-4,.14A9.12,9.12,0,0,1,38.8,36c-1.08-.75-2.14-1.53-3.2-2.31-2.13-1.56-4.23-3.16-6.44-4.58-.55-.37-1.13-.65-1.72-1a4,4,0,0,1-1.36-1.44,7.76,7.76,0,0,1-.87-3.84Z" style="fill:#d6cdc4"/></g></svg>