<svg id="b0997bbf-3888-4a72-b1a0-6b375c602cb0" data-name="Calque 1" xmlns="http://www.w3.org/2000/svg" viewBox="0 0 280.14 398.68"><g id="eff1528c-4828-4457-87e9-7d81f05ff79a" data-name="chatarbre"><path d="M89.17,287.5a7.11,7.11,0,0,1-.71,3.49,3.47,3.47,0,0,1-1.19,1.33c-.53.3-1,.57-1.54.91-2,1.33-3.82,2.82-5.71,4.27-.94.73-1.88,1.46-2.84,2.17a8.31,8.31,0,0,1-3.13,1.7,8.76,8.76,0,0,1-3.57,0,5.28,5.28,0,0,1-3.11-1.73l-.07-.1.13,0a5.8,5.8,0,0,0,2.26-1.1,19.23,19.23,0,0,0,2-1.65,31.85,31.85,0,0,0,3.4-3.85,24,24,0,0,0,2.65-4.39,7.74,7.74,0,0,0,.79-4.93h0v0a4.15,4.15,0,0,0-.13-1.41,1.61,1.61,0,0,0-.12-.33l-.08-.15,0,0h0s.07,0,.1,0,0-.1,0-.1h0l0,.06a1.33,1.33,0,0,1-.27.75,12.91,12.91,0,0,1-.88,1.18c-.17.18-.31.37-.5.54a1.78,1.78,0,0,1-.67.37,6.26,6.26,0,0,1-3,.12,3.17,3.17,0,0,1-.72-.23.79.79,0,0,1-.32-.26c-.12-.11-.07-.35,0-.43a7.82,7.82,0,0,1,.63-1.34c.23-.43.48-.85.74-1.27.13-.2.26-.41.41-.61a3,3,0,0,1,.23-.3.51.51,0,0,1,.42-.15,3.89,3.89,0,0,1,1.39.57,10.9,10.9,0,0,1,1.21.84c.39.31.72.66,1.19.6s1-.14,1.44-.19c1-.13,1.95-.2,2.92-.24l0,.23a4.38,4.38,0,0,1-2.72-.7c-.83-.43-1.62-.92-2.43-1.38s-1.63-.89-2.47-1.27a11.64,11.64,0,0,0-1.28-.49,2.56,2.56,0,0,0-.65-.12c-.22,0-.39.06-.36.18l0,0,0,.05a2.83,2.83,0,0,0-.36,1.25c0,.44.58.21.86-.08a3.21,3.21,0,0,0,.94-2.41,1.61,1.61,0,0,0-.47-1.15.94.94,0,0,0-1.13.09A5.55,5.55,0,0,0,70.93,278a22.59,22.59,0,0,0-1.52,5.31,53.53,53.53,0,0,0-.64,5.5l-.08-.14a10,10,0,0,0,6.77.85,6.84,6.84,0,0,0,3-1.58A7,7,0,0,0,80.34,285l0-.15.15.05a5,5,0,0,0,2.79,0,3.6,3.6,0,0,0,2.12-1.7l.1.24a1.2,1.2,0,0,0-.84.22,6.51,6.51,0,0,0-.81.6,15.09,15.09,0,0,0-1.41,1.47,19.39,19.39,0,0,0-1.21,1.65,4.57,4.57,0,0,0-.79,1.76c0,.07,0,.07,0,.08a1,1,0,0,0,.18,0,1.89,1.89,0,0,0,.47,0,5.46,5.46,0,0,0,1-.26,8.77,8.77,0,0,0,1.8-.93,5.87,5.87,0,0,0,1.46-1.35,2.63,2.63,0,0,0,.57-1.81l.25.15a6.89,6.89,0,0,0-2.74,2.4,11.22,11.22,0,0,0-1.57,3.36c-.08.3-.15.6-.2.9a2.37,2.37,0,0,0,0,.44v.06h0a.16.16,0,0,0-.17-.07s-.1.06-.06,0l.21-.18a18.61,18.61,0,0,1,1.68-.93c1.13-.56,2.25-1.14,3.35-1.75l0,0a5.3,5.3,0,0,0,1.84-2.73,5.14,5.14,0,0,0-.33-3.27,10.44,10.44,0,0,0-1.81-2.88l-.14-.15-.07-.07,0,0s.07.05.08,0-.14.09-.22.17a5.62,5.62,0,0,0-.58.61,4.79,4.79,0,0,0-.87,1.36c0,.06,0,0-.06,0s0,0,.06,0a1.53,1.53,0,0,0,.35-.16,4.45,4.45,0,0,1,.82-.39,1.56,1.56,0,0,1,1,0,1.57,1.57,0,0,1,.73.66l.21.39.09.14h-.08a.37.37,0,0,0,0-.21,3.39,3.39,0,0,0-.06-.41,9.43,9.43,0,0,1-.17-1.75c0-.38-.65-.67-1.15-.83a11.41,11.41,0,0,0-1.66-.37,24.65,24.65,0,0,0-3.43-.27h-.21l-.3,0c-.14-.07-.3-.12-.43-.2s-.51-.31-.75-.47c-.49-.33-1-.69-1.42-1-.92-.71-1.82-1.45-2.71-2.19l-.67-.56a.84.84,0,0,0-.27-.18c-.13,0-.25,0-.39,0a14.08,14.08,0,0,0-1.71.08,32.6,32.6,0,0,0-3.41.51,15.08,15.08,0,0,0-1.67.41,4.27,4.27,0,0,0-1.5.67,7.64,7.64,0,0,0-1.94,2.72,19.4,19.4,0,0,0-1.68,6.62l-.05.56-.39-.41a15.24,15.24,0,0,1-3.4-6.17,23.71,23.71,0,0,1-.87-7,23,23,0,0,1,.31-3.52,6.38,6.38,0,0,1,.2-.9.64.64,0,0,1,.06-.15.18.18,0,0,1,0-.06l0,0a.25.25,0,0,1,.11-.05.27.27,0,0,1,.26.09.13.13,0,0,1,0,0,.36.36,0,0,1,0,.09s0,.09,0,.09a.56.56,0,0,1,0,.12c0,.11.12.23.18.35.3.47.66.94,1,1.39,1.45,1.81,3,3.54,4.6,5.25l.26.28-.36.16A13.5,13.5,0,0,0,61,277.42a14.61,14.61,0,0,0-2.6,2.67,7.27,7.27,0,0,1-1.32,1.48,3.2,3.2,0,0,1-1.94.64,5.31,5.31,0,0,1-3.49-1.83l.48-.24a53.87,53.87,0,0,0,2,6.69A21.73,21.73,0,0,0,55.53,290a7.59,7.59,0,0,0,1,1.38,2.4,2.4,0,0,0,1.29.82l-.25.08A9.23,9.23,0,0,0,59.22,290a6.27,6.27,0,0,0,.63-2.68,8.86,8.86,0,0,0-2-5.2,19.4,19.4,0,0,0-4.08-4,20.66,20.66,0,0,0-2.42-1.55,9.4,9.4,0,0,0-1.29-.6,6,6,0,0,0-.65-.2,1.3,1.3,0,0,0-.47,0l.11-.17a8.51,8.51,0,0,0,.1,2.23c.11.77.25,1.54.4,2.31.3,1.53.66,3.06,1,4.59l2.28,9.15v.08a28.74,28.74,0,0,0,2,10.12,15.61,15.61,0,0,0,2.66,4.37,10.5,10.5,0,0,0,4.13,2.9,47.64,47.64,0,0,1,18.73,9.41,26.55,26.55,0,0,1,6.69,8.19,17.74,17.74,0,0,1,1,2.46,10,10,0,0,1,.36,1.3,11.28,11.28,0,0,1,.28,1.31,27.78,27.78,0,0,1,.22,5.31,77.91,77.91,0,0,1-4.33,20.6c-2.35,6.61-5.16,13.17-9.52,18.78-.54.72-1.1,1.37-1.6,2.06a12.76,12.76,0,0,0-1.3,2.19,8.91,8.91,0,0,0-.83,4.89c.42,3.37,2.81,6.23,5.59,8.14a11.89,11.89,0,0,0,1.08.65c.19.09.37.18.56.25l.24.07.28,0a3.35,3.35,0,0,0,1.15,0c.22-.07.32-.31.35-.7a8.29,8.29,0,0,0-.4-2.44c-.23-.83-.51-1.65-.8-2.47a89.4,89.4,0,0,1-3.42-10,48.47,48.47,0,0,1-1.67-10.44,27.85,27.85,0,0,1,1.44-10.51c.16-.41.3-.84.47-1.25l.59-1.21c.39-.81.79-1.53,1.13-2.33a31.48,31.48,0,0,0,1.62-4.92,32.44,32.44,0,0,0,.87-10.29,19.36,19.36,0,0,0-1.05-5,10.76,10.76,0,0,0-2.64-4.25,8.42,8.42,0,0,0-2-1.39,8.51,8.51,0,0,0-2.39-.68,12.87,12.87,0,0,0-5,.44A33.34,33.34,0,0,0,58,333.88a54,54,0,0,0-8.1,6.52,58.39,58.39,0,0,0-12,16.89,52.35,52.35,0,0,0-3.46,9.8c-.41,1.69-.72,3.39-1,5.11a35.65,35.65,0,0,0-.19,5.17,26.89,26.89,0,0,0,2.15,10l.54,1.17c.19.38.42.74.63,1.12A20.08,20.08,0,0,0,38,391.81a18,18,0,0,0,3.71,3.48,15.19,15.19,0,0,0,4.61,2.07,13.74,13.74,0,0,0,5,.21,15.85,15.85,0,0,0,8.83-4.72,27.31,27.31,0,0,0,5.44-8.69,47,47,0,0,0,2.7-10v0l0-.06a10.46,10.46,0,0,0,.58-3.65,15.88,15.88,0,0,0-.61-3.73,27.85,27.85,0,0,0-3.17-7,55,55,0,0,0-9.95-11.84A56.4,56.4,0,0,0,49.14,343a35.07,35.07,0,0,0-6.77-3.7,18.33,18.33,0,0,0-3.66-1.1l-.94-.14-.94-.05c-.63,0-1.34,0-2-.12A34,34,0,0,1,27.18,336a57.16,57.16,0,0,1-13.87-7.36c-4.19-3.12-8.11-6.83-10.64-11.5a21.56,21.56,0,0,1-2.51-7.48,18.53,18.53,0,0,1,.64-7.87,25,25,0,0,1,3.39-7.11,36.33,36.33,0,0,1,2.34-3.16c.84-1,1.77-1.94,2.65-2.92h0a33.45,33.45,0,0,1,6.42-3.9,25.47,25.47,0,0,1,7.18-2.22,16.66,16.66,0,0,1,7.49.53,16.19,16.19,0,0,1,6.39,3.94,16,16,0,0,1,2.33,3,11.76,11.76,0,0,1,1.39,3.52,11.13,11.13,0,0,1-1,7.37,11.44,11.44,0,0,1-5.3,5.21,9.05,9.05,0,0,1-7.35.2h0l0,0a7,7,0,0,1-2.1-4.84,6.19,6.19,0,0,1,2.51-4.61,5.46,5.46,0,0,1,2.43-1.11,2.17,2.17,0,0,1,1.35.17,1.61,1.61,0,0,1,.79,1.09,5.33,5.33,0,0,1,.16,2.66,1.68,1.68,0,0,1-.89,1c-.4.21-.83.32-1.23.51l0-.09c.4-.2.84-.31,1.22-.52a1.47,1.47,0,0,0,.82-.94,5.13,5.13,0,0,0-.17-2.6,1.46,1.46,0,0,0-.73-1,2,2,0,0,0-1.25-.15,5.39,5.39,0,0,0-2.36,1.1,6,6,0,0,0-2.4,4.47A6.78,6.78,0,0,0,26.9,306l0,0a8.8,8.8,0,0,0,7.14-.25,11.13,11.13,0,0,0,5.12-5.09,10.69,10.69,0,0,0,.89-7.14,11.56,11.56,0,0,0-1.35-3.39,15.81,15.81,0,0,0-8.51-6.67,16.29,16.29,0,0,0-7.28-.48,24.92,24.92,0,0,0-7,2.2A33.2,33.2,0,0,0,9.55,289l0,0c-.86,1-1.78,1.89-2.6,2.89A34.79,34.79,0,0,0,4.67,295a24.81,24.81,0,0,0-3.29,7A19.1,19.1,0,0,0,3.24,316.8,35.63,35.63,0,0,0,13.73,328a56.19,56.19,0,0,0,13.71,7.22,33.71,33.71,0,0,0,7.48,1.86c.65.09,1.25.06,1.92.1l1,0,1,.15a19.3,19.3,0,0,1,3.82,1.13,35.27,35.27,0,0,1,6.94,3.77A58.8,58.8,0,0,1,66,359.2a29.27,29.27,0,0,1,3.3,7.21,17.52,17.52,0,0,1,.65,4,11.31,11.31,0,0,1-.63,4l0-.1a46.67,46.67,0,0,1-2.74,10.24,28.18,28.18,0,0,1-5.66,9,16.83,16.83,0,0,1-9.39,5,14.66,14.66,0,0,1-5.4-.24,15.93,15.93,0,0,1-4.92-2.21,18.77,18.77,0,0,1-3.92-3.68,22.42,22.42,0,0,1-1.5-2.24c-.22-.39-.46-.77-.66-1.17l-.56-1.21a28,28,0,0,1-2.22-10.39,37.81,37.81,0,0,1,.2-5.32c.25-1.76.57-3.5,1-5.21a53.32,53.32,0,0,1,3.53-10,59.58,59.58,0,0,1,12.25-17.14,55.28,55.28,0,0,1,8.25-6.62,33.9,33.9,0,0,1,9.62-4.47,13.86,13.86,0,0,1,5.37-.45,8.55,8.55,0,0,1,4.92,2.3,11.7,11.7,0,0,1,2.86,4.59,20.22,20.22,0,0,1,1.09,5.24,33.48,33.48,0,0,1-.89,10.56A32.24,32.24,0,0,1,78.84,356c-.71,1.66-1.66,3.1-2.18,4.74a27,27,0,0,0-1.4,10.19,47.7,47.7,0,0,0,1.63,10.26,86.93,86.93,0,0,0,3.39,9.9c.3.83.58,1.67.82,2.53a8.86,8.86,0,0,1,.42,2.72,1.1,1.1,0,0,1,0,.39,1.37,1.37,0,0,1-.14.4,1.21,1.21,0,0,1-.71.62,3.79,3.79,0,0,1-1.45,0c-.1,0-.18,0-.38,0a2.51,2.51,0,0,1-.38-.11c-.23-.09-.44-.19-.65-.29a12.47,12.47,0,0,1-1.17-.7,16.09,16.09,0,0,1-3.87-3.72,10.76,10.76,0,0,1-2.06-5,9.73,9.73,0,0,1,.91-5.32A13.52,13.52,0,0,1,73,380.27c.53-.73,1.11-1.41,1.63-2.09,4.27-5.47,7.08-12,9.41-18.53a76.88,76.88,0,0,0,4.32-20.39,27,27,0,0,0-.2-5.17,10.7,10.7,0,0,0-.27-1.25,9.82,9.82,0,0,0-.34-1.24,16.45,16.45,0,0,0-1-2.37,25.7,25.7,0,0,0-6.51-8,42.84,42.84,0,0,0-8.7-5.68,49.33,49.33,0,0,0-4.79-2.06c-.83-.26-1.64-.58-2.48-.8s-1.68-.45-2.54-.77a11.19,11.19,0,0,1-4.38-3.09,16.29,16.29,0,0,1-2.77-4.56,29.26,29.26,0,0,1-2.06-10.38V294L50,284.83c-.37-1.53-.72-3.06-1-4.61-.15-.78-.29-1.56-.4-2.35a8.34,8.34,0,0,1-.08-2.46l0-.12.1-.05a1.48,1.48,0,0,1,.29-.12l.24,0c.16,0,.28,0,.42,0a5.34,5.34,0,0,1,.74.23,11.29,11.29,0,0,1,1.36.63,20.39,20.39,0,0,1,2.5,1.6,20.15,20.15,0,0,1,4.2,4.15,9.44,9.44,0,0,1,2.06,5.55,6.8,6.8,0,0,1-.7,2.94A9.94,9.94,0,0,1,58,292.66l-.1.11-.14,0a2.89,2.89,0,0,1-1.63-1,8.3,8.3,0,0,1-1-1.48A22.23,22.23,0,0,1,53.57,287a51.94,51.94,0,0,1-2-6.78l-.22-1,.7.73a4.82,4.82,0,0,0,3.08,1.65,2.65,2.65,0,0,0,1.6-.53A7.05,7.05,0,0,0,58,279.76,15.44,15.44,0,0,1,60.69,277,13.8,13.8,0,0,1,64,275l-.1.44c-1.59-1.73-3.16-3.46-4.62-5.29-.36-.47-.72-.93-1-1.45-.07-.14-.15-.27-.22-.42s-.06-.2-.08-.3v0a.19.19,0,0,0,0,.07l0,0a.24.24,0,0,0,.25.09l.1,0,0,0,0,0s0,0,0,.05a6.42,6.42,0,0,0-.18.81,22.12,22.12,0,0,0-.31,3.45,22.84,22.84,0,0,0,.84,6.84,14.62,14.62,0,0,0,3.28,6l-.43.15a19.84,19.84,0,0,1,1.74-6.79,8.09,8.09,0,0,1,2.08-2.89,5,5,0,0,1,1.66-.75c.57-.17,1.14-.3,1.71-.42a33.71,33.71,0,0,1,3.47-.5A13,13,0,0,1,74,273.9a4,4,0,0,1,.47.05,1.1,1.1,0,0,1,.46.28l.67.56c.89.74,1.78,1.47,2.7,2.18.46.35.92.7,1.39,1a7.82,7.82,0,0,0,.72.45,2.23,2.23,0,0,0,.35.17l.13,0h.23a24.29,24.29,0,0,1,3.51.27,11.7,11.7,0,0,1,1.73.4,3.65,3.65,0,0,1,.84.37,1.15,1.15,0,0,1,.6.84,8.85,8.85,0,0,0,.17,1.71c0,.14.05.29.06.45a.62.62,0,0,1-.2.59.37.37,0,0,1-.27.07.44.44,0,0,1-.2-.13,1.23,1.23,0,0,1-.15-.22c-.07-.13-.14-.26-.21-.37a1,1,0,0,0-1.23-.48,4.56,4.56,0,0,0-.75.35,3,3,0,0,1-.44.2.52.52,0,0,1-.37,0,.39.39,0,0,1-.16-.42,4.86,4.86,0,0,1,1-1.56,7.65,7.65,0,0,1,.62-.65.92.92,0,0,1,.52-.28.3.3,0,0,1,.18.08l0,0,.08.08.15.17a10.7,10.7,0,0,1,1.88,3,5.56,5.56,0,0,1,.34,3.53,5.64,5.64,0,0,1-2,2.93h0c-1.1.62-2.23,1.19-3.36,1.76a16.94,16.94,0,0,0-1.64.89,1,1,0,0,0-.15.13.52.52,0,0,1-.16.1.26.26,0,0,1-.22-.11l0-.07a.38.38,0,0,1,0-.17,2.67,2.67,0,0,1,0-.51,7.54,7.54,0,0,1,.22-.94,11.63,11.63,0,0,1,1.62-3.48,7.27,7.27,0,0,1,2.9-2.51l.23-.11,0,.26a3,3,0,0,1-.63,2,6.27,6.27,0,0,1-1.56,1.44,8.77,8.77,0,0,1-1.88,1,5,5,0,0,1-1,.28,2.47,2.47,0,0,1-.55,0,1.16,1.16,0,0,1-.32-.08.4.4,0,0,1-.2-.36,2.4,2.4,0,0,1,.32-1.07,9,9,0,0,1,.53-.91,16.91,16.91,0,0,1,1.24-1.68A14.74,14.74,0,0,1,83.68,284a6.79,6.79,0,0,1,.86-.63,1.48,1.48,0,0,1,1.11-.25l.2.05-.1.19a3.92,3.92,0,0,1-2.33,1.85,5.21,5.21,0,0,1-3,0l.21-.1a7.28,7.28,0,0,1-1.94,3,7.15,7.15,0,0,1-3.17,1.64,10,10,0,0,1-3.58.17,10.14,10.14,0,0,1-3.42-1.05l-.08-.05v-.1a54.16,54.16,0,0,1,.66-5.53,22.92,22.92,0,0,1,1.55-5.37,5.65,5.65,0,0,1,1.66-2.28,1.2,1.2,0,0,1,1.45-.08,1.81,1.81,0,0,1,.58,1.34,3.51,3.51,0,0,1-1,2.62,1.58,1.58,0,0,1-.65.38.58.58,0,0,1-.44-.07.5.5,0,0,1-.2-.39,2.87,2.87,0,0,1,.38-1.4v.09a.38.38,0,0,1,.2-.43.87.87,0,0,1,.41-.07,3.3,3.3,0,0,1,.71.13,11.63,11.63,0,0,1,1.32.51c.85.39,1.67.83,2.48,1.29s1.6.95,2.42,1.38a4.21,4.21,0,0,0,2.57.68l0,.24a28.09,28.09,0,0,0-2.9.23c-.48.05-1,.15-1.46.18a1.21,1.21,0,0,1-.76-.18c-.22-.15-.39-.32-.58-.47a10.91,10.91,0,0,0-1.19-.82,3.48,3.48,0,0,0-1.28-.54.27.27,0,0,0-.25.08,3.4,3.4,0,0,0-.21.28c-.14.19-.28.4-.41.6-.26.41-.5.83-.74,1.25a8.51,8.51,0,0,0-.61,1.3c-.1.22,0,.32.25.44a2.84,2.84,0,0,0,.66.22,6.05,6.05,0,0,0,2.84-.11,2.19,2.19,0,0,0,1.08-.85,9.75,9.75,0,0,0,.87-1.16,1.32,1.32,0,0,0,.25-.59v0l0,0s0-.11,0-.13a.12.12,0,0,1,.12,0h0l0,0,0,0a1.62,1.62,0,0,1,.1.18,3.62,3.62,0,0,1,.13.35,4.38,4.38,0,0,1,.13,1.48v0a7.87,7.87,0,0,1-.82,5.06A23.88,23.88,0,0,1,75.19,293a31.44,31.44,0,0,1-3.43,3.86,17.41,17.41,0,0,1-2,1.66,5.61,5.61,0,0,1-2.34,1.13l.06-.12a5.07,5.07,0,0,0,3,1.67,8.47,8.47,0,0,0,3.51,0,8.14,8.14,0,0,0,3.08-1.67c1-.7,1.9-1.43,2.84-2.16,1.89-1.44,3.75-2.93,5.73-4.26.49-.34,1-.62,1.54-.91a3.52,3.52,0,0,0,1.16-1.29,7,7,0,0,0,.7-3.43Z" style="fill:#634e42"/></g><g id="bd79bc2f-086c-4ae0-8c2d-b1ae830626f5" data-name="bois"><path d="M133.82,30.46a176.64,176.64,0,0,1,21.3,11.77,178.48,178.48,0,0,1,19.59,14.45A137.91,137.91,0,0,1,191.87,74a112.12,112.12,0,0,1,7.19,9.84,90.9,90.9,0,0,1,5.83,10.71,71.84,71.84,0,0,1,4,11.52c.3,1,.44,2,.67,3a30.56,30.56,0,0,1,.53,3l.42,3,.19,3c.17,4.08,0,8.14-.1,12.18-.08,2,.05,4,.06,6.07s.18,4,.33,6.06a72.93,72.93,0,0,0,1.85,12,34.63,34.63,0,0,0,4.85,10.95,54.71,54.71,0,0,0,3.82,4.69,23.67,23.67,0,0,1,3.59,5,7.92,7.92,0,0,1,.62,1.43c.17.49.38,1,.51,1.46.28,1,.52,2,.74,3,.44,2,.8,4,1.13,6,1.28,8,2.1,16.12,2.81,24.21s1.24,16.19,1.7,24.3q1.31,24.32,1.59,48.68c.14,16.23,0,32.48-.69,48.7-.36,8.11-.85,16.22-1.7,24.3-.45,4-1,8.07-1.74,12.06a55.52,55.52,0,0,1-1.45,5.92c-.15.48-.32,1-.51,1.44a12.28,12.28,0,0,1-.6,1.4,5.79,5.79,0,0,1-1.87,2.4l-.05-.09a5.63,5.63,0,0,0,1.79-2.37,14.23,14.23,0,0,0,.58-1.4q.27-.71.48-1.44a52.09,52.09,0,0,0,1.35-5.91c.72-4,1.18-8,1.57-12.06.78-8.07,1.21-16.17,1.51-24.28.57-16.21.59-32.44.33-48.66s-.72-32.44-1.58-48.64q-.63-12.15-1.6-24.27c-.68-8.08-1.47-16.16-2.71-24.16-.32-2-.68-4-1.1-6-.22-1-.45-2-.72-2.94-.13-.48-.33-.93-.49-1.4a7.13,7.13,0,0,0-.58-1.36,22.77,22.77,0,0,0-3.48-4.86,59.57,59.57,0,0,1-3.84-4.76,35.06,35.06,0,0,1-4.92-11.2,72.54,72.54,0,0,1-1.84-12.08c-.14-2-.32-4-.31-6.09s-.13-4.06,0-6.1c.09-4.06.3-8.12.15-12.15l-.19-3-.4-3a29.94,29.94,0,0,0-.52-3c-.22-1-.36-2-.65-3a71.4,71.4,0,0,0-4-11.44A88.52,88.52,0,0,0,198.68,84a112.15,112.15,0,0,0-7.12-9.83,137.79,137.79,0,0,0-17-17.29,185,185,0,0,0-40.74-26.36Z" style="fill:#5e595b"/><path d="M212.57,20.32a62.06,62.06,0,0,0-10,9.54,120.87,120.87,0,0,0-8.45,10.92A123.11,123.11,0,0,0,187,52.57a47.27,47.27,0,0,0-2.84,6.24,16.58,16.58,0,0,0-.85,3.29,4.38,4.38,0,0,0,.55,3.23l-.07.07a4.47,4.47,0,0,1-.93-3.34,17.44,17.44,0,0,1,.63-3.46,43.48,43.48,0,0,1,2.62-6.48,85.33,85.33,0,0,1,7.36-11.8,120.91,120.91,0,0,1,8.74-10.8,62.43,62.43,0,0,1,10.28-9.28Z" style="fill:#5e595b"/><path d="M259.6,51a43.59,43.59,0,0,0-8.41,4,89.27,89.27,0,0,0-7.72,5.22,150.25,150.25,0,0,0-14.19,12.12A183.83,183.83,0,0,0,216.57,86a83.77,83.77,0,0,0-5.66,7.37,35.72,35.72,0,0,0-2.36,4,7.75,7.75,0,0,0-1.08,4.4l-.1,0a5.22,5.22,0,0,1,0-2.36,13.74,13.74,0,0,1,.73-2.25A31.86,31.86,0,0,1,210.32,93a76.42,76.42,0,0,1,5.48-7.64,132.67,132.67,0,0,1,12.93-13.57,151.22,151.22,0,0,1,14.44-11.94A89.38,89.38,0,0,1,251,54.76a43.89,43.89,0,0,1,8.53-3.85Z" style="fill:#5e595b"/><path d="M233.47,122.59a42.79,42.79,0,0,0-9.1,5.63,36.46,36.46,0,0,0-7.28,7.76,32.38,32.38,0,0,0-4.48,9.56,18.54,18.54,0,0,0,0,10.44l-.09,0a16.2,16.2,0,0,1-.86-10.73,27.7,27.7,0,0,1,4.8-9.77,39.71,39.71,0,0,1,17-13Z" style="fill:#5e595b"/><path d="M147.14,76.36A18.5,18.5,0,0,0,148.42,83a48.22,48.22,0,0,0,2.78,6.18,110,110,0,0,0,7.17,11.51A261.53,261.53,0,0,0,175.22,122q4.46,5.13,9.1,10.09t9.36,9.83q4.71,4.89,9.63,9.57c1.64,1.56,3.3,3.1,5,4.58.85.75,1.71,1.48,2.61,2.17.44.35.9.68,1.37,1a4.06,4.06,0,0,0,1.49.7v.1a4.1,4.1,0,0,1-1.59-.64c-.5-.28-1-.6-1.44-.92-.93-.65-1.83-1.35-2.73-2-1.77-1.42-3.49-2.91-5.18-4.42-3.39-3-6.65-6.19-9.87-9.38s-6.31-6.53-9.38-9.86-6.05-6.77-9-10.23A264.52,264.52,0,0,1,158,101a110.29,110.29,0,0,1-7-11.66,49.3,49.3,0,0,1-2.7-6.25A18.86,18.86,0,0,1,147,76.36Z" style="fill:#5e595b"/><path d="M177.25,87.8a26.23,26.23,0,0,0-2.17,9.57,67.88,67.88,0,0,0,.07,9.88c.25,3.29.78,6.54,1.32,9.78a58,58,0,0,0,2.35,9.58l-.1,0a35.55,35.55,0,0,1-3.23-9.43,62.54,62.54,0,0,1-1.14-9.92,69.11,69.11,0,0,1,.23-10,26.69,26.69,0,0,1,2.58-9.58Z" style="fill:#5e595b"/><path d="M207.35,184.88A65.8,65.8,0,0,1,222,195.24a33.45,33.45,0,0,1,5.85,6.92,16.85,16.85,0,0,1,2.66,8.62h-.1A21.23,21.23,0,0,0,227,202.7a46.33,46.33,0,0,0-5.56-6.89,61.59,61.59,0,0,0-6.72-5.86,72,72,0,0,0-7.44-5Z" style="fill:#5e595b"/><path d="M139,51c-4.11,4.28-6.83,9.64-9.18,15a105.91,105.91,0,0,0-5.39,16.85A123.62,123.62,0,0,0,121.29,118,101.73,101.73,0,0,0,129,152.33a94.78,94.78,0,0,0,8.46,15.47,150.28,150.28,0,0,0,10.68,14.09,244.92,244.92,0,0,0,25,25c8.83,7.83,18.06,15.22,27.28,22.61,4.58,3.73,9.19,7.45,13.6,11.41a76.28,76.28,0,0,1,6.34,6.25,34.09,34.09,0,0,1,4.9,7.46,65.54,65.54,0,0,1,3.5,8.18c.94,2.81,1.82,5.64,2.48,8.53a107.3,107.3,0,0,1,2.61,17.54h-.1a105.92,105.92,0,0,0-3-17.44c-.69-2.87-1.59-5.68-2.55-8.46a65.18,65.18,0,0,0-3.55-8.07,34.47,34.47,0,0,0-4.87-7.27,78.12,78.12,0,0,0-6.35-6.12c-4.42-3.89-9.06-7.56-13.68-11.24-9.21-7.39-18.45-14.79-27.31-22.65a246.79,246.79,0,0,1-25-25.24,152,152,0,0,1-10.66-14.2,95.37,95.37,0,0,1-8.46-15.62A102.39,102.39,0,0,1,120.79,118a124.35,124.35,0,0,1,3.3-35.24,105.1,105.1,0,0,1,5.5-16.86c2.38-5.39,5.14-10.75,9.29-15Z" style="fill:#5e595b"/><path d="M71.44,71.36A121.57,121.57,0,0,1,85.67,77.1c4.63,2.18,9.16,4.6,13.58,7.2A100.1,100.1,0,0,1,112,92.94a46.89,46.89,0,0,1,5.56,5.36,20.09,20.09,0,0,1,2.26,3.15,7.22,7.22,0,0,1,1.09,3.71h-.1a7.21,7.21,0,0,0-1.38-3.47A19.67,19.67,0,0,0,117,98.76a52.53,52.53,0,0,0-5.68-5.05A147.46,147.46,0,0,0,98.83,85c-4.34-2.67-8.8-5.16-13.37-7.43A119.8,119.8,0,0,0,71.4,71.46Z" style="fill:#5e595b"/><path d="M71.47,101.77a34.36,34.36,0,0,0,.29,12,49.17,49.17,0,0,0,3.79,11.45A61.6,61.6,0,0,0,89.93,144.5a68.18,68.18,0,0,0,20.4,12.63,71.06,71.06,0,0,0,11.5,3.62,92.65,92.65,0,0,0,12,1.79v.1a73.63,73.63,0,0,1-12.11-1.21,65.33,65.33,0,0,1-22.64-8.87,66,66,0,0,1-9.66-7.47A62.3,62.3,0,0,1,75.1,125.48a49.4,49.4,0,0,1-3.64-11.61,34.69,34.69,0,0,1-.09-12.11Z" style="fill:#5e595b"/><path d="M31.56,152.15a105.9,105.9,0,0,0,22.12,7.92A159.44,159.44,0,0,0,76.85,164a193.88,193.88,0,0,0,23.48.79c3.92-.07,7.83-.3,11.72-.75,1.94-.22,3.88-.5,5.8-.89a22.69,22.69,0,0,0,5.57-1.75l0,.09c-3.48,1.93-7.46,2.6-11.33,3.25a113.31,113.31,0,0,1-11.77,1,157.69,157.69,0,0,1-23.6-1,161.73,161.73,0,0,1-23.22-4.21,106.68,106.68,0,0,1-22-8.32Z" style="fill:#5e595b"/><path d="M31.57,187.44a159.87,159.87,0,0,0,34.5,21.13,101,101,0,0,0,39.2,8.94h2.53a23.56,23.56,0,0,0,2.52-.06l5-.32c3.37-.33,6.72-.71,10.08-1.14,6.71-.82,13.4-1.83,20.11-2.75a149.53,149.53,0,0,1,20.29-1.55A43.13,43.13,0,0,1,176,213a23.73,23.73,0,0,1,9,4.59l-.06.08a23.55,23.55,0,0,0-9.08-4.23,42.63,42.63,0,0,0-10-1.06,148.19,148.19,0,0,0-20.14,1.9c-6.71.92-13.4,1.93-20.13,2.74-3.37.4-6.74.76-10.11,1.06l-5.1.27c-.85.07-1.7.05-2.55,0l-2.55,0A101.58,101.58,0,0,1,65.87,209a160.38,160.38,0,0,1-34.36-21.51Z" style="fill:#5e595b"/><path d="M86.81,190a56.31,56.31,0,0,0,5,8.92,60.18,60.18,0,0,0,6.6,7.81,63.38,63.38,0,0,0,7.86,6.5c.7.47,1.39,1,2.11,1.41s1.45.89,2.21,1.26c.37.19.74.41,1.13.58l1.17.48a12.15,12.15,0,0,0,1.21.38,8.36,8.36,0,0,0,1.25.18v.1a10.26,10.26,0,0,1-5.07-1.09,32.55,32.55,0,0,1-4.58-2.47,45,45,0,0,1-7.87-6.77,61.2,61.2,0,0,1-6.45-8.09,57.57,57.57,0,0,1-4.72-9.17Z" style="fill:#5e595b"/><path d="M86.73,238.29c6.12-4.37,11.72-9.4,18-13.68a51.3,51.3,0,0,1,9.88-5.57,35.75,35.75,0,0,1,11-2.62v.1A52.16,52.16,0,0,0,115,220a72.3,72.3,0,0,0-9.83,5.31c-6.28,4.09-12,9-18.34,13.11Z" style="fill:#5e595b"/><path d="M143.05,126.66a76.25,76.25,0,0,0-5.11,10.23,54.22,54.22,0,0,0-3.29,10.89,36.26,36.26,0,0,0-.3,11.24,25,25,0,0,0,3.93,10.51l-.08.06a20.9,20.9,0,0,1-4.83-10.41,31,31,0,0,1,.49-11.56,64.52,64.52,0,0,1,9.1-21Z" style="fill:#5e595b"/><path d="M166.56,156a7.73,7.73,0,0,1,1.5,2.61,22.8,22.8,0,0,1,.8,2.91,49.91,49.91,0,0,1,.81,6c.32,4,.36,8,.32,12s-.13,8-.43,12c-.17,2-.32,4-.52,6l-.28,3-.14,1.49a5.88,5.88,0,0,0,0,1.45l-.07.07a4.29,4.29,0,0,1-.21-1.52l0-1.51,0-3,.22-6c.16-4,.47-8,.62-12s.2-8,0-12a49.57,49.57,0,0,0-.61-5.95,20.59,20.59,0,0,0-.69-2.89,7.45,7.45,0,0,0-1.38-2.61Z" style="fill:#5e595b"/></g><g id="e1a63dcc-5acc-4fa9-84dd-2b989f722088" data-name="feuilles"><path d="M34.25,141.15A19.79,19.79,0,0,1,31,151.42a17.85,17.85,0,0,1,0-20.54A19.79,19.79,0,0,1,34.25,141.15Z" style="fill:#839690"/><path d="M53.57,172.7a19.76,19.76,0,0,1-8.86,6.13,19.81,19.81,0,0,1,3.71-10.11,19.76,19.76,0,0,1,8.86-6.13A19.79,19.79,0,0,1,53.57,172.7Z" style="fill:#839690"/><path d="M81.22,175.46a19.76,19.76,0,0,1-8.86,6.13,17.83,17.83,0,0,1,12.56-16.24A19.72,19.72,0,0,1,81.22,175.46Z" style="fill:#839690"/><path d="M107.36,200.65a19.76,19.76,0,0,1-8.86,6.13,17.83,17.83,0,0,1,12.57-16.24A19.81,19.81,0,0,1,107.36,200.65Z" style="fill:#839690"/><path d="M95.62,184.4a19.82,19.82,0,0,1-8.86,6.14,17.83,17.83,0,0,1,12.57-16.25A19.79,19.79,0,0,1,95.62,184.4Z" style="fill:#839690"/><path d="M75.81,191.93a19.86,19.86,0,0,1-9.23-5.55,19.77,19.77,0,0,1,10.74-.78,19.79,19.79,0,0,1,9.24,5.54A19.74,19.74,0,0,1,75.81,191.93Z" style="fill:#839690"/><path d="M82.3,203.39a19.79,19.79,0,0,1-9.23-5.55,19.81,19.81,0,0,1,10.74-.79A19.79,19.79,0,0,1,93,202.6,19.81,19.81,0,0,1,82.3,203.39Z" style="fill:#839690"/><path d="M20.79,190.1a19.77,19.77,0,0,1-9.23-5.55,19.77,19.77,0,0,1,10.74-.78,19.76,19.76,0,0,1,9.24,5.55A19.79,19.79,0,0,1,20.79,190.1Z" style="fill:#839690"/><path d="M37.69,178.07a19.81,19.81,0,0,1-5.24,9.41,17.84,17.84,0,0,1,4.1-20.13A19.85,19.85,0,0,1,37.69,178.07Z" style="fill:#839690"/><path d="M41.76,210.69a19.82,19.82,0,0,1-10.22,3.4,19.8,19.8,0,0,1,6.4-8.67A19.8,19.8,0,0,1,48.16,202,19.8,19.8,0,0,1,41.76,210.69Z" style="fill:#839690"/><path d="M66.67,225.14a19.82,19.82,0,0,1-10.22,3.4,19.79,19.79,0,0,1,6.39-8.67,19.85,19.85,0,0,1,10.23-3.4A19.8,19.8,0,0,1,66.67,225.14Z" style="fill:#839690"/><path d="M74.49,237.44A19.76,19.76,0,0,1,65.84,231a19.9,19.9,0,0,1,10.77.27,19.83,19.83,0,0,1,8.65,6.43A19.79,19.79,0,0,1,74.49,237.44Z" style="fill:#839690"/><path d="M85.22,228.12a19.78,19.78,0,0,1-8.65-6.42,19.85,19.85,0,0,1,10.77.26A19.77,19.77,0,0,1,96,228.39,19.75,19.75,0,0,1,85.22,228.12Z" style="fill:#839690"/><path d="M106.22,235.52A19.84,19.84,0,0,1,108.74,225a17.86,17.86,0,0,1,1.46,20.49A19.78,19.78,0,0,1,106.22,235.52Z" style="fill:#839690"/><path d="M128.81,210.05a19.73,19.73,0,0,1-7.22-8,17.83,17.83,0,0,1,17.72,10.39A19.79,19.79,0,0,1,128.81,210.05Z" style="fill:#839690"/><path d="M145.47,207.5a19.82,19.82,0,0,1-7.21-8A17.83,17.83,0,0,1,156,209.88,19.76,19.76,0,0,1,145.47,207.5Z" style="fill:#839690"/><path d="M156,156.36a19.82,19.82,0,0,1-7.21-8,17.8,17.8,0,0,1,17.71,10.38A19.73,19.73,0,0,1,156,156.36Z" style="fill:#839690"/><path d="M146.08,146.07a19.82,19.82,0,0,1-10.75.7,17.85,17.85,0,0,1,19.14-7.46A19.79,19.79,0,0,1,146.08,146.07Z" style="fill:#839690"/><path d="M82.17,101.55a19.76,19.76,0,0,1-10.75.69,19.79,19.79,0,0,1,8.39-6.76,19.76,19.76,0,0,1,10.75-.69A19.87,19.87,0,0,1,82.17,101.55Z" style="fill:#839690"/><path d="M61.84,94.68A19.8,19.8,0,0,1,59.3,84.21a19.77,19.77,0,0,1,8.11,7.09A19.8,19.8,0,0,1,70,101.77,19.93,19.93,0,0,1,61.84,94.68Z" style="fill:#839690"/><path d="M60.85,114.43a19.85,19.85,0,0,1-6.13-8.86,19.79,19.79,0,0,1,10.12,3.72A19.78,19.78,0,0,1,71,118.15,19.74,19.74,0,0,1,60.85,114.43Z" style="fill:#839690"/><path d="M85.44,118.92a19.89,19.89,0,0,1-9.89,4.27A19.83,19.83,0,0,1,81.17,114a19.75,19.75,0,0,1,9.89-4.27A19.83,19.83,0,0,1,85.44,118.92Z" style="fill:#839690"/><path d="M94.54,133.71a19.79,19.79,0,0,1-7.69,7.53,17.8,17.8,0,0,1,9.64-18.13A19.86,19.86,0,0,1,94.54,133.71Z" style="fill:#839690"/><path d="M66.71,132.21a19.8,19.8,0,0,1-9.43-5.2A19.78,19.78,0,0,1,68,125.83a19.7,19.7,0,0,1,9.44,5.2A19.83,19.83,0,0,1,66.71,132.21Z" style="fill:#839690"/><path d="M61.25,75.57a19.79,19.79,0,0,1-10.57-2.12,19.86,19.86,0,0,1,9.86-4.35A19.85,19.85,0,0,1,71.1,71.22,19.76,19.76,0,0,1,61.25,75.57Z" style="fill:#839690"/><path d="M68.23,61.12A19.79,19.79,0,0,1,69.36,50.4a19.87,19.87,0,0,1,5.25,9.41,19.79,19.79,0,0,1-1.13,10.72A19.87,19.87,0,0,1,68.23,61.12Z" style="fill:#839690"/><path d="M84.36,68.65a19.75,19.75,0,0,1,1.13-10.71,19.81,19.81,0,0,1,5.25,9.4,19.9,19.9,0,0,1-1.13,10.72A19.81,19.81,0,0,1,84.36,68.65Z" style="fill:#839690"/><path d="M101.79,73.49a19.81,19.81,0,0,1,7-8.15,19.72,19.72,0,0,1-1.07,10.72,19.81,19.81,0,0,1-7,8.15A19.83,19.83,0,0,1,101.79,73.49Z" style="fill:#839690"/><path d="M81.91,84.27a19.83,19.83,0,0,1,10.68-1.44,19.87,19.87,0,0,1-7.9,7.33A19.79,19.79,0,0,1,74,91.6,19.73,19.73,0,0,1,81.91,84.27Z" style="fill:#839690"/><path d="M99,95.57a19.83,19.83,0,0,1,10.68-1.44,19.8,19.8,0,0,1-7.9,7.33,19.79,19.79,0,0,1-10.67,1.44A19.81,19.81,0,0,1,99,95.57Z" style="fill:#839690"/><path d="M136.77,44.77a19.89,19.89,0,0,1-3.21,10.29,19.79,19.79,0,0,1-3.3-10.26,19.77,19.77,0,0,1,3.2-10.28A19.79,19.79,0,0,1,136.77,44.77Z" style="fill:#839690"/><path d="M142.32,62.81a19.82,19.82,0,0,1-10.75.72A17.85,17.85,0,0,1,150.68,56,19.78,19.78,0,0,1,142.32,62.81Z" style="fill:#839690"/><path d="M135.16,85.27a19.76,19.76,0,0,1-10.75.73,17.85,17.85,0,0,1,19.11-7.51A19.72,19.72,0,0,1,135.16,85.27Z" style="fill:#839690"/><path d="M158.05,76.61a19.73,19.73,0,0,1-8.47,6.65,19.83,19.83,0,0,1,3.09-10.32,19.82,19.82,0,0,1,8.47-6.65A19.72,19.72,0,0,1,158.05,76.61Z" style="fill:#839690"/><path d="M184.2,46.45a19.83,19.83,0,0,1-1.45,10.68,19.82,19.82,0,0,1-5-9.56,19.78,19.78,0,0,1,1.46-10.68A19.79,19.79,0,0,1,184.2,46.45Z" style="fill:#839690"/><path d="M154.7,30.12a19.85,19.85,0,0,1-8.47,6.66,19.7,19.7,0,0,1,3.09-10.32,19.79,19.79,0,0,1,8.47-6.66A19.81,19.81,0,0,1,154.7,30.12Z" style="fill:#839690"/><path d="M149.73,50.94a19.84,19.84,0,0,1-10.41-2.78,17.86,17.86,0,0,1,20.52-.95A19.76,19.76,0,0,1,149.73,50.94Z" style="fill:#839690"/><path d="M172.7,40.35A19.79,19.79,0,0,1,164.23,47a19.83,19.83,0,0,1,3.09-10.32A19.79,19.79,0,0,1,175.79,30,19.7,19.7,0,0,1,172.7,40.35Z" style="fill:#839690"/><path d="M183.68,98.92a19.73,19.73,0,0,1-8.47,6.65,17.81,17.81,0,0,1,11.56-17A19.72,19.72,0,0,1,183.68,98.92Z" style="fill:#839690"/><path d="M196.44,56.1a19.72,19.72,0,0,1-10.63,1.7,17.83,17.83,0,0,1,18.34-9.23A19.77,19.77,0,0,1,196.44,56.1Z" style="fill:#839690"/><path d="M215.36,68.46a19.72,19.72,0,0,1,.83-10.74A19.83,19.83,0,0,1,221.7,67a19.82,19.82,0,0,1-.83,10.74A19.81,19.81,0,0,1,215.36,68.46Z" style="fill:#839690"/><path d="M227.8,55.8a19.72,19.72,0,0,1,.83-10.74,19.83,19.83,0,0,1,5.51,9.26,19.82,19.82,0,0,1-.83,10.74A19.81,19.81,0,0,1,227.8,55.8Z" style="fill:#839690"/><path d="M241.85,47.7a19.81,19.81,0,0,1,5.52-9.26,19.77,19.77,0,0,1,.82,10.74,19.81,19.81,0,0,1-5.52,9.26A19.88,19.88,0,0,1,241.85,47.7Z" style="fill:#839690"/><path d="M257.54,64.8A19.81,19.81,0,0,1,249,58.31a17.81,17.81,0,0,1,19.36,6.84A19.79,19.79,0,0,1,257.54,64.8Z" style="fill:#839690"/><path d="M269.38,58.13a19.78,19.78,0,0,1-8.6-6.5,17.83,17.83,0,0,1,19.36,6.85A19.76,19.76,0,0,1,269.38,58.13Z" style="fill:#839690"/><path d="M231.28,132.25a19.79,19.79,0,0,1,9.91,4.24,17.82,17.82,0,0,1-20.44-2A19.8,19.8,0,0,1,231.28,132.25Z" style="fill:#839690"/><path d="M241.5,122.28a19.88,19.88,0,0,1,9.91,4.24,17.82,17.82,0,0,1-20.44-2A19.8,19.8,0,0,1,241.5,122.28Z" style="fill:#839690"/><path d="M219.52,123.86a19.76,19.76,0,0,1-3.13,10.31,17.81,17.81,0,0,1-.25-20.53A19.77,19.77,0,0,1,219.52,123.86Z" style="fill:#839690"/><path d="M238.63,78a19.79,19.79,0,0,1-10.49-2.43A17.8,17.8,0,0,1,248.61,74,19.81,19.81,0,0,1,238.63,78Z" style="fill:#839690"/><path d="M208,37.71a19.77,19.77,0,0,1-10.71-1.17,17.83,17.83,0,0,1,20.13-4A19.8,19.8,0,0,1,208,37.71Z" style="fill:#839690"/><path d="M225.56,92.62a19.88,19.88,0,0,1-9.64-4.82A17.86,17.86,0,0,1,236.21,91,19.82,19.82,0,0,1,225.56,92.62Z" style="fill:#839690"/><path d="M194.74,20a19.77,19.77,0,0,1-.43-10.76,19.77,19.77,0,0,1,6.55,8.55,19.77,19.77,0,0,1,.43,10.76A19.84,19.84,0,0,1,194.74,20Z" style="fill:#839690"/><path d="M223.57,23A19.78,19.78,0,0,1,213,20.92a17.86,17.86,0,0,1,20.42-2.24A19.83,19.83,0,0,1,223.57,23Z" style="fill:#839690"/><path d="M207.11,10.65A19.75,19.75,0,0,1,208.7,0a19.79,19.79,0,0,1,4.84,9.62A19.79,19.79,0,0,1,212,20.28,19.85,19.85,0,0,1,207.11,10.65Z" style="fill:#839690"/><path d="M185.94,31.82a19.82,19.82,0,0,1,.64-10.76,19.88,19.88,0,0,1,5.67,9.16A19.77,19.77,0,0,1,191.6,41,19.74,19.74,0,0,1,185.94,31.82Z" style="fill:#839690"/><path d="M173,81.87a19.83,19.83,0,0,1,1.44,10.68,19.89,19.89,0,0,1-7.33-7.89A19.77,19.77,0,0,1,165.62,74,19.88,19.88,0,0,1,173,81.87Z" style="fill:#839690"/><path d="M144.26,89.82a19.77,19.77,0,0,1,9.26,5.5,17.8,17.8,0,0,1-20-4.67A19.82,19.82,0,0,1,144.26,89.82Z" style="fill:#839690"/><path d="M150.6,103A19.76,19.76,0,0,1,161,106a17.82,17.82,0,0,1-20.53.53A19.82,19.82,0,0,1,150.6,103Z" style="fill:#839690"/><path d="M165.34,122.27a19.76,19.76,0,0,1,10.35,3,17.82,17.82,0,0,1-20.53.53A19.82,19.82,0,0,1,165.34,122.27Z" style="fill:#839690"/><path d="M168.64,95.92a19.72,19.72,0,0,1-4.78,9.65,19.85,19.85,0,0,1-1.65-10.64A19.72,19.72,0,0,1,167,85.28,19.74,19.74,0,0,1,168.64,95.92Z" style="fill:#839690"/><path d="M142.29,69.4a12.07,12.07,0,0,1,3.94,5.29A10.9,10.9,0,0,1,136,67.34,12.1,12.1,0,0,1,142.29,69.4Z" style="fill:#839690"/><path d="M129.12,29.46a12,12,0,0,1,6.21,2.18,10.89,10.89,0,0,1-12.56-.39A12.15,12.15,0,0,1,129.12,29.46Z" style="fill:#839690"/><path d="M135.42,24.29a12.1,12.1,0,0,1-.12,6.59,12.13,12.13,0,0,1-3.7-5.46,12.1,12.1,0,0,1,.12-6.59A12.13,12.13,0,0,1,135.42,24.29Z" style="fill:#839690"/><path d="M232.9,116.92a12.12,12.12,0,0,1-3.39,5.65,10.93,10.93,0,0,1,2.91-12.23A12.08,12.08,0,0,1,232.9,116.92Z" style="fill:#839690"/><path d="M259.77,42.93a12.13,12.13,0,0,1-2.33,6.17,12.11,12.11,0,0,1-1.65-6.39,12.12,12.12,0,0,1,2.33-6.16A12.06,12.06,0,0,1,259.77,42.93Z" style="fill:#839690"/><path d="M116.48,67.48a19.86,19.86,0,0,1-5-9.54,19.79,19.79,0,0,1,9.59,4.91,19.8,19.8,0,0,1,5,9.54A19.79,19.79,0,0,1,116.48,67.48Z" style="fill:#839690"/><path d="M146,222a19.86,19.86,0,0,1,9.24-5.53,17.79,17.79,0,0,1-13.62,15.37A19.83,19.83,0,0,1,146,222Z" style="fill:#839690"/><path d="M171.75,145.94a19.76,19.76,0,0,1,9.24-5.53,17.79,17.79,0,0,1-13.62,15.37A19.72,19.72,0,0,1,171.75,145.94Z" style="fill:#839690"/><path d="M137.16,116.9A19.82,19.82,0,0,1,139,106.28a19.84,19.84,0,0,1,4.62,9.74,19.73,19.73,0,0,1-1.84,10.61A19.81,19.81,0,0,1,137.16,116.9Z" style="fill:#839690"/><path d="M127.57,132.4a19.85,19.85,0,0,1-1.91-10.6A17.81,17.81,0,0,1,135.24,140,19.85,19.85,0,0,1,127.57,132.4Z" style="fill:#839690"/><path d="M149.53,119.05a19.77,19.77,0,0,1,10.28-3.25A17.82,17.82,0,0,1,143,127.61,19.79,19.79,0,0,1,149.53,119.05Z" style="fill:#839690"/><path d="M175.7,163.19a19.86,19.86,0,0,1,9.25-5.53A17.79,17.79,0,0,1,171.33,173,19.76,19.76,0,0,1,175.7,163.19Z" style="fill:#839690"/><path d="M179.17,182.16a19.81,19.81,0,0,1,10.72-1,17.83,17.83,0,0,1-18.92,8A19.82,19.82,0,0,1,179.17,182.16Z" style="fill:#839690"/><path d="M209.81,199a19.85,19.85,0,0,1,10.73-1,17.83,17.83,0,0,1-18.92,8A19.83,19.83,0,0,1,209.81,199Z" style="fill:#839690"/><path d="M197.81,185.18A19.8,19.8,0,0,1,208.22,188a17.82,17.82,0,0,1-20.51.94A19.78,19.78,0,0,1,197.81,185.18Z" style="fill:#839690"/><path d="M212.13,174.07a19.81,19.81,0,0,1-2.54,10.47,17.82,17.82,0,0,1-1.4-20.49A19.73,19.73,0,0,1,212.13,174.07Z" style="fill:#839690"/><path d="M163.84,172a19.79,19.79,0,0,1,4.87,9.6A17.8,17.8,0,0,1,154.32,167,19.75,19.75,0,0,1,163.84,172Z" style="fill:#839690"/><path d="M125.08,223.93a19.78,19.78,0,0,1,8.72-6.32,17.86,17.86,0,0,1-12.21,16.52A19.85,19.85,0,0,1,125.08,223.93Z" style="fill:#839690"/><path d="M59.05,192.9a19.73,19.73,0,0,1-1.46,10.67,17.82,17.82,0,0,1-3.49-20.23A19.73,19.73,0,0,1,59.05,192.9Z" style="fill:#839690"/><path d="M91.57,247.9a19.79,19.79,0,0,1-1.47,10.67,17.82,17.82,0,0,1-3.49-20.23A19.79,19.79,0,0,1,91.57,247.9Z" style="fill:#839690"/><path d="M27.29,162.31a19.76,19.76,0,0,1-8.86,6.13,19.79,19.79,0,0,1,3.71-10.11A19.75,19.75,0,0,1,31,152.2,19.72,19.72,0,0,1,27.29,162.31Z" style="fill:#839690"/><path d="M53.27,147A19.83,19.83,0,0,1,50,157.24a17.81,17.81,0,0,1,0-20.54A19.83,19.83,0,0,1,53.27,147Z" style="fill:#839690"/><path d="M78.58,153.37a19.81,19.81,0,0,1-6.73,8.41,17.83,17.83,0,0,1,7.39-19.16A19.7,19.7,0,0,1,78.58,153.37Z" style="fill:#839690"/></g></svg>