<svg id="a666946c-0872-41a9-96e8-684240f886d1" data-name="Calque 1" xmlns="http://www.w3.org/2000/svg" viewBox="0 0 131.4 95.64"><g id="e3261109-1e82-461c-ae22-d5a66828e824" data-name="chat allonge"><path d="M22.72,94.43a12.54,12.54,0,0,0,4.94.53,12.51,12.51,0,0,0,4.63-1.79,26.22,26.22,0,0,1,4.58-2.07,48.18,48.18,0,0,1,4.85-1.3,65.47,65.47,0,0,1,10-1.4,35.2,35.2,0,0,1,5,0,13.47,13.47,0,0,1,4.87,1.2,15.19,15.19,0,0,0,4.76,1.45c1.64.28,3.31.43,5,.55,3.33.24,6.68.27,10,.23,1.66,0,3.35-.07,5-.2h.19s0,0-.06.11,0,0,0,.08h0l-.3,0-.62-.1c-.42-.06-.83-.14-1.24-.24a13.83,13.83,0,0,1-2.41-.78,6.43,6.43,0,0,1-3.6-3.44,7.47,7.47,0,0,1,.14-5h0a8.71,8.71,0,0,1,3.68-3.68,9.65,9.65,0,0,1,5.15-.86,2.65,2.65,0,0,0,1.23,0c.4-.14.8-.32,1.19-.5.78-.37,1.55-.77,2.32-1.17,1.54-.8,3.06-1.64,4.59-2.47l1.15-.62a1.9,1.9,0,0,1,.64-.25,5.26,5.26,0,0,1,.67-.07,17.62,17.62,0,0,1,2.62.11,27.18,27.18,0,0,1,5.13,1.06,13.18,13.18,0,0,1,4.64,2.44A5.24,5.24,0,0,1,113,78.34,4.39,4.39,0,0,1,113,81l0,.11h-.11a33.46,33.46,0,0,1-8.94-.22,11,11,0,0,1-2.2-.58,1.91,1.91,0,0,1-.27-.16.64.64,0,0,1-.15-.14c0-.08,0-.06,0-.21a.25.25,0,0,1,.15-.16,1.75,1.75,0,0,1,.62-.06c.39,0,.76,0,1.13.06a38.93,38.93,0,0,1,4.43.72,26.15,26.15,0,0,1,4.3,1.27,6.85,6.85,0,0,1,2,1.17,2.52,2.52,0,0,1,.38.47,3.77,3.77,0,0,1,.23.54c.13.34.29.68.44,1a10,10,0,0,1,1.21,4.34A5.36,5.36,0,0,1,114,93.1a12.24,12.24,0,0,1-1.89,1.23,8.39,8.39,0,0,1-2.1.87,14.8,14.8,0,0,1-4.49.42,30.6,30.6,0,0,1-8.76-1.87,26.21,26.21,0,0,1-7.88-4.26,5.66,5.66,0,0,1-1.45-1.79,2,2,0,0,1-.18-.59c0-.2,0-.4,0-.59a1.87,1.87,0,0,1,.35-1.2A1.35,1.35,0,0,1,88.75,85a4.22,4.22,0,0,1,1.13.33,10.74,10.74,0,0,1,2,1.14l.85.59-1-.17a6,6,0,0,1-3.18-1.75,4.42,4.42,0,0,1-1-1.57,1.84,1.84,0,0,1,.31-1.89,3.06,3.06,0,0,1,1.68-.86,10,10,0,0,1,1.8-.16,22,22,0,0,1,3.55.37l-.15.47c-.35-.18-.7-.36-1-.56a3.54,3.54,0,0,1-1-.77.7.7,0,0,1-.07-.82,1.48,1.48,0,0,1,.54-.45,7.19,7.19,0,0,1,1.13-.45c1.52-.46,3-.75,4.5-1.24a18.84,18.84,0,0,0,7.89-4.58,16.13,16.13,0,0,0,2.67-3.7A32.27,32.27,0,0,0,111,64.56a23.75,23.75,0,0,0,1-9.12c0-.38-.1-.75-.17-1.13a11.59,11.59,0,0,1-.26-1.17,4.89,4.89,0,0,1,.6-2.38,22.8,22.8,0,0,1,2.59-3.95c1.93-2.46,4.16-4.71,6.25-6.94a32.62,32.62,0,0,0,4.67-7.95,8.89,8.89,0,0,0,.69-4.4,4,4,0,0,0-.34-1,9.39,9.39,0,0,0-.62-.93c-.46-.62-1-1.22-1.44-1.82l-3-3.59a20.6,20.6,0,0,1-2.67-3.91A3.8,3.8,0,0,1,118,15a1.73,1.73,0,0,1,.09-.7,1.67,1.67,0,0,1,.38-.59,6.41,6.41,0,0,1,2.06-1.32,15,15,0,0,1,4.61-1.17,4.52,4.52,0,0,1,1.26.06.83.83,0,0,1,.69.55,1.16,1.16,0,0,1-.21.78,13.35,13.35,0,0,1-1.5,1.87,41.05,41.05,0,0,0-3,3.48,2.87,2.87,0,0,0-.48.91c0,.16,0,.11.08.33l.29.5c.38.67.8,1.32,1.24,2a16.58,16.58,0,0,0,1.41,1.79,4.39,4.39,0,0,0,1.71,1.27.8.8,0,0,0,.79-.16,4.56,4.56,0,0,0,.59-.85,3.56,3.56,0,0,0,.24-2.11,4,4,0,0,1,.26-2.47,22.62,22.62,0,0,0,1.09-2.05,12.63,12.63,0,0,0,1.18-4.36,6.75,6.75,0,0,0-.21-2.2,5.1,5.1,0,0,0-1.05-1.89,5.34,5.34,0,0,0-3.92-1.71,14.1,14.1,0,0,0-4.5.58,19.73,19.73,0,0,0-4.23,1.74,7.92,7.92,0,0,0-3.29,2.86l-.15.3-.29-.09a54.62,54.62,0,0,0-6.84-1.55c-1.16-.19-2.32-.34-3.48-.43a12.88,12.88,0,0,0-3.41.11,1.93,1.93,0,0,0-.66.28.38.38,0,0,0-.09.09l0,.07c0,.06-.09.11-.13.16a.7.7,0,0,1-.82.06,5,5,0,0,1-1.33-1.4c-.7-1-1.32-2-2-3s-1.27-2-2-2.92A10.31,10.31,0,0,0,90,1.35a1.56,1.56,0,0,0-.66-.24c-.3,0-.6-.07-.9-.12C87.9.91,87.32.81,86.76.77a5.17,5.17,0,0,0-1.63.12,2.76,2.76,0,0,0-1.28.81,6.15,6.15,0,0,0-1.07,3.09c-.13,1.13-.16,2.34-.23,3.5-.12,2.35-.19,4.7-.09,7a16.57,16.57,0,0,0,.42,3.41,3.15,3.15,0,0,0,.27.75,1.12,1.12,0,0,0,.35.43,1.16,1.16,0,0,0,.61-.12,6.16,6.16,0,0,0,.73-.36A34.63,34.63,0,0,0,90.22,15c.42-.41.84-.82,1.24-1.25l.59-.63.27-.32.1-.14h0l0,.05a.26.26,0,0,0,0,.09s0,0,0,0v0A27.19,27.19,0,0,0,90.8,9.74a21.81,21.81,0,0,0-2-2.84,5.16,5.16,0,0,0-1.19-1.11,1.06,1.06,0,0,0-.59-.2.53.53,0,0,0-.39.31,13.42,13.42,0,0,0-1.12,3.2c-.28,1.13-.53,2.28-.75,3.43-.47,2.31-.83,4.63-1.36,7a8.11,8.11,0,0,1-.25.9,2.28,2.28,0,0,1-.24.51c-.1.14-.2.25-.29.36a12.07,12.07,0,0,0-1.06,1.35,4.14,4.14,0,0,0-.88,3,5.3,5.3,0,0,0,.66,1.5c.27.55.5,1.1.73,1.64a25.23,25.23,0,0,0,1.48,3.15,9,9,0,0,0,2.18,2.55,7.39,7.39,0,0,0,3,1.38l.09,0,.08.05a9.62,9.62,0,0,0,5.13,2.24,5.61,5.61,0,0,0,2.67-.63c.43-.2.85-.45,1.28-.7a5.47,5.47,0,0,0,1.13-.8,12.38,12.38,0,0,0,1-1.06,4.5,4.5,0,0,1,.57-.6,1.48,1.48,0,0,1,.94-.37,2.07,2.07,0,0,1,.91.24l.3.15s.06,0,0,0-.27.16-.25.23,0,0,0-.11l-.14-.28a5,5,0,0,0-.38-.56A5.44,5.44,0,0,0,99.83,32a2.57,2.57,0,0,0-2.45.22l.16-.17a3.16,3.16,0,0,0-.22.53c0,.08,0,.13,0,.12s0-.07,0,0a2.32,2.32,0,0,1,.7.4,1.5,1.5,0,0,1,.27.44l.12.36a24.06,24.06,0,0,1,.18,2.73A7.63,7.63,0,0,0,101,41a5.65,5.65,0,0,0,2.22,1.1,8,8,0,0,0,2.55.09,6.73,6.73,0,0,0,4.5-2A2.47,2.47,0,0,0,111,38a6.36,6.36,0,0,0-.56-1.1c-.23-.38-.47-.76-.71-1.13-.49-.75-1-1.49-1.54-2.19a11.9,11.9,0,0,0-.83-1,1.88,1.88,0,0,0-.2-.2s-.08-.07-.07,0h0a.87.87,0,0,1-.26-.16,1.77,1.77,0,0,1-.35-.86,6.59,6.59,0,0,1,.19-2.9,5.12,5.12,0,0,1,1.6-2.45,5.64,5.64,0,0,1,2.7-1.12,9.86,9.86,0,0,1,2.82,0l2.72.37-2.69.53a12.74,12.74,0,0,0-5,2.18,12.42,12.42,0,0,0-2,1.86,8.12,8.12,0,0,0-1.48,2.25l-1,2.47.1-2.66a8.86,8.86,0,0,0-.19-2.54,2.37,2.37,0,0,0-1.34-1.73,4.42,4.42,0,0,0-2.4,0,14.42,14.42,0,0,0-2.49.8l-.5.2-.13-.52a19.76,19.76,0,0,0-1.52-4.32,7.54,7.54,0,0,0-1.26-1.83,8.57,8.57,0,0,0-.82-.76l-.46-.41a1.12,1.12,0,0,1-.2-.27.43.43,0,0,1,0-.24.47.47,0,0,1,.21-.39.56.56,0,0,1,.28-.1h.1a1.18,1.18,0,0,1,.43.12,7.47,7.47,0,0,1,3.49,3.51,6.65,6.65,0,0,1,.21,4.94l-.16.22a2.18,2.18,0,0,0-.15.31c-.06.17-.11.35-.16.54-.08.37-.15.75-.2,1.14A9.14,9.14,0,0,0,97,31.68a2.14,2.14,0,0,0,0,.43.09.09,0,0,0,0,0s0,0,0,0l.1.11.21.22a6.57,6.57,0,0,1,1.42,2.2,2.36,2.36,0,0,1,0,1.49,1.76,1.76,0,0,0,0,.93,10.42,10.42,0,0,0,2.33,4,6.51,6.51,0,0,0,3.79,2.28l1.53.19-1.36.72a11.47,11.47,0,0,1-14-2.1A9.35,9.35,0,0,1,89,38.88a6.77,6.77,0,0,1-.23-1,2.2,2.2,0,0,1,0-.58.92.92,0,0,1,.06-.22l0-.13a1,1,0,0,1,.18-.18.61.61,0,0,1,.49-.11,1.09,1.09,0,0,1,.26.1,3.25,3.25,0,0,1,.76.81,9,9,0,0,1,.51.81,19.68,19.68,0,0,1,1.59,3.38,5.84,5.84,0,0,1,.4,2,1.75,1.75,0,0,1,0,.32l-.05.21-.09.44-.2.89A32.33,32.33,0,0,1,86.5,58.92a19.18,19.18,0,0,1-5.69,4.76l-1.66.85-1.77.6c-.3.1-.59.22-.89.29l-.92.17-1.83.34h-.08l-.08,0a2.15,2.15,0,0,1-.85-.38.78.78,0,0,1-.28-.75,1.09,1.09,0,0,1,.32-.53,4.78,4.78,0,0,1,1.39-.81A10.1,10.1,0,0,1,75.6,63a3.81,3.81,0,0,1,.82-.13.81.81,0,0,1,.35.06l.07,0a.49.49,0,0,1,.15.14.48.48,0,0,1,.07.44.69.69,0,0,1-.18.27,1.73,1.73,0,0,1-.42.24,8.85,8.85,0,0,1-3,.68,4.38,4.38,0,0,1-1.59-.18,2.23,2.23,0,0,1-.78-.46l-.51-.55a23.1,23.1,0,0,1-1.93-2.22A6.12,6.12,0,0,1,67.9,60a1.56,1.56,0,0,1-.12-.4,1.33,1.33,0,0,1,0-.45,1.45,1.45,0,0,1,.31-.93,2.57,2.57,0,0,1,1.52-.78,5.5,5.5,0,0,1,1.58-.09,2,2,0,0,1,1.5.91,2.46,2.46,0,0,1,.25,1.71l0,.33H72.5A3.91,3.91,0,0,1,71.22,60a2.44,2.44,0,0,1-1.14-.78,2.17,2.17,0,0,1-.42-1.33,4,4,0,0,1,.25-1.27,19.91,19.91,0,0,1,2.51-4c.91-1.25,1.83-2.48,2.61-3.79s1.5-2.74,1.17-4l.72,0a16.62,16.62,0,0,1-2.62,4.66,11.46,11.46,0,0,1-4.25,3.27,12.33,12.33,0,0,1-5.28.94,22.2,22.2,0,0,1-5.25-.9l-.05,0,0,0a30,30,0,0,1-4.67-3.95,17.54,17.54,0,0,1-3.52-5,8.14,8.14,0,0,1-.36-6.13,10.92,10.92,0,0,1,3.83-4.81l.06,0h.07A102.41,102.41,0,0,0,66.42,30c1.92-.53,3.79-1.18,5.78-1.58a6.65,6.65,0,0,1,.78-.1c.14,0,.28,0,.42,0a.46.46,0,0,1,.34.14.41.41,0,0,1,.08.32.38.38,0,0,1-.07.17,4.28,4.28,0,0,1-1.26,1,29.36,29.36,0,0,1-2.67,1.38,53.77,53.77,0,0,1-11.4,3.67,38.85,38.85,0,0,1-11.93.69,63.73,63.73,0,0,1-11.66-2.65,48.29,48.29,0,0,0-5.68-1.75,18.77,18.77,0,0,0-5.89,0,64.34,64.34,0,0,1-11.93.56,45.54,45.54,0,0,1-5.93-.64,20.57,20.57,0,0,1-2.9-.75A5,5,0,0,1,0,28.9l.09,0a4.89,4.89,0,0,0,2.45,1.54,20.56,20.56,0,0,0,2.88.72,45.32,45.32,0,0,0,5.92.6,64.67,64.67,0,0,0,11.88-.64,19.1,19.1,0,0,1,6,0,50.47,50.47,0,0,1,5.73,1.72,63,63,0,0,0,11.59,2.56,39,39,0,0,0,11.8-.75A53.21,53.21,0,0,0,69.6,30.94a26.94,26.94,0,0,0,2.61-1.37,4.62,4.62,0,0,0,1.08-.82s0,0,0,.14.06,0,0,0H73a4.33,4.33,0,0,0-.7.09c-1.91.38-3.81,1-5.72,1.59A105.14,105.14,0,0,1,55,33.36l.13-.06a10.33,10.33,0,0,0-3.61,4.53,7.43,7.43,0,0,0,.37,5.66,17,17,0,0,0,3.4,4.83,29.37,29.37,0,0,0,4.57,3.83l-.09,0a21.36,21.36,0,0,0,5.06.86,11.71,11.71,0,0,0,5-.89,10.66,10.66,0,0,0,4-3.08,15.87,15.87,0,0,0,2.49-4.46l.4-1.07.32,1.09a4.21,4.21,0,0,1-.19,2.52,12.2,12.2,0,0,1-1,2.15c-.8,1.36-1.74,2.6-2.64,3.86a19.24,19.24,0,0,0-2.39,3.82,1.94,1.94,0,0,0,.06,1.83,2.38,2.38,0,0,0,1.75.68l-.39.32a1.72,1.72,0,0,0-.16-1.09,1.18,1.18,0,0,0-.91-.52,4.09,4.09,0,0,0-1.29.09,1.78,1.78,0,0,0-1,.48,1,1,0,0,0,0,.95,5,5,0,0,0,.67,1.15,24.57,24.57,0,0,0,1.87,2.13l.48.51a1.29,1.29,0,0,0,.46.26,3.47,3.47,0,0,0,1.27.14,8.4,8.4,0,0,0,2.64-.61l.2-.11s0,0-.07.13a.41.41,0,0,0,0,.35.31.31,0,0,0,.12.11l0,0c.1,0,0,0,0,0a3.08,3.08,0,0,0-.61.1,8.65,8.65,0,0,0-1.3.44,4,4,0,0,0-1.11.62c-.06.06-.07.11-.06.07s0-.15,0-.12a1.35,1.35,0,0,0,.47.19h-.16l1.75-.33.88-.17c.29-.07.56-.18.84-.27l1.68-.58,1.58-.81a18.62,18.62,0,0,0,5.41-4.55,31.73,31.73,0,0,0,5.92-12.94l.2-.88L92,44l.05-.23a.59.59,0,0,0,0-.13,5.34,5.34,0,0,0-.35-1.58,19.5,19.5,0,0,0-1.5-3.21,7.61,7.61,0,0,0-.47-.73,3.29,3.29,0,0,0-.45-.54s0,0,0,0a.41.41,0,0,0,.28-.06.23.23,0,0,0,.09-.11l0,0s0,0,0,0a2,2,0,0,0,0,.33c0,.27.12.52.18.78a8.66,8.66,0,0,0,1.89,2.84,11,11,0,0,0,6.07,3.17,11.13,11.13,0,0,0,6.75-1.25l.18.92a7.4,7.4,0,0,1-4.4-2.6,11.75,11.75,0,0,1-1.5-2,9,9,0,0,1-1-2.34,2.61,2.61,0,0,1,0-1.47,1.45,1.45,0,0,0,0-.89,5.61,5.61,0,0,0-1.22-1.85l-.2-.22-.11-.12-.07-.08a1.74,1.74,0,0,1-.1-.19,2.41,2.41,0,0,1-.09-.78,10.54,10.54,0,0,1,.09-1.27c.06-.42.13-.83.23-1.25a5,5,0,0,1,.19-.63,1.74,1.74,0,0,1,.45-.74L96.8,28a5.65,5.65,0,0,0-.16-4.24,6.5,6.5,0,0,0-3-3l-.13,0h0a.31.31,0,0,0,.21-.07.47.47,0,0,0,.19-.34c0-.2,0-.12,0-.17s0,0,0,0l.43.37a10,10,0,0,1,.89.84,9,9,0,0,1,1.41,2,21.69,21.69,0,0,1,1.59,4.54l-.64-.32a16.86,16.86,0,0,1,2.66-.86,5.34,5.34,0,0,1,2.93.1A3.28,3.28,0,0,1,105,29.11a9.73,9.73,0,0,1,.22,2.83l-.89-.19A9.11,9.11,0,0,1,106,29.22a13,13,0,0,1,2.21-2,13.57,13.57,0,0,1,5.4-2.33l0,.9a6.23,6.23,0,0,0-4.82.88,4.86,4.86,0,0,0-1.48,4.48,3.43,3.43,0,0,0,.11.4s-.16-.1-.13-.07l.16.07a2,2,0,0,1,.21.15A3.75,3.75,0,0,1,108,32c.33.36.62.72.9,1.08.55.73,1.07,1.48,1.57,2.25.25.38.49.77.73,1.16a7.27,7.27,0,0,1,.65,1.31,3.36,3.36,0,0,1-.83,2.91,7.66,7.66,0,0,1-5.1,2.36,9.39,9.39,0,0,1-2.84-.12,6.45,6.45,0,0,1-2.58-1.28,8.4,8.4,0,0,1-2.76-4.89c-.15-1,0-1.89-.17-2.65-.17-.51,0-.39-.65-.66a.85.85,0,0,1-.44-.51,1.23,1.23,0,0,1,0-.55,3.18,3.18,0,0,1,.29-.72l0-.1.11-.07a3.46,3.46,0,0,1,3.24-.3,6.35,6.35,0,0,1,2.51,1.94,5.22,5.22,0,0,1,.45.67,2.35,2.35,0,0,1,.19.39,1.08,1.08,0,0,1,.09.61.64.64,0,0,1-.17.31.63.63,0,0,1-.34.14.88.88,0,0,1-.38-.06l-.36-.19a1.15,1.15,0,0,0-.51-.15c-.25,0-.55.28-.87.66a11.92,11.92,0,0,1-1,1.14,7.08,7.08,0,0,1-1.29.92c-.43.24-.87.5-1.33.72A6.61,6.61,0,0,1,94,39a10.4,10.4,0,0,1-5.62-2.42l.17.08a8.4,8.4,0,0,1-3.36-1.55,9.52,9.52,0,0,1-2.38-2.8,25.16,25.16,0,0,1-1.54-3.24c-.22-.55-.45-1.09-.69-1.6a5.68,5.68,0,0,1-.74-1.72,4.93,4.93,0,0,1,1-3.62A14.42,14.42,0,0,1,82,20.72c.09-.11.2-.23.27-.33a1.8,1.8,0,0,0,.11-.28c.09-.25.16-.53.23-.81.51-2.27.88-4.61,1.35-6.93.23-1.16.48-2.32.77-3.47A13.48,13.48,0,0,1,86,5.45a1.33,1.33,0,0,1,1-.67,1.82,1.82,0,0,1,1.08.31,6.34,6.34,0,0,1,1.39,1.28,21.73,21.73,0,0,1,2,3,26.34,26.34,0,0,1,1.66,3.22l0,.06,0,.14a.66.66,0,0,1-.09.34l-.16.22-.3.36c-.2.23-.4.44-.61.66q-.62.64-1.26,1.26a34.75,34.75,0,0,1-5.54,4.53,6.72,6.72,0,0,1-.85.42,1.75,1.75,0,0,1-1.11.14,1.61,1.61,0,0,1-.83-.82,4.76,4.76,0,0,1-.33-.91,17.81,17.81,0,0,1-.45-3.59c-.09-2.38,0-4.75.11-7.11.07-1.18.1-2.34.24-3.55a6.85,6.85,0,0,1,1.25-3.49A3.5,3.5,0,0,1,84.93.15,6,6,0,0,1,86.81,0c.62,0,1.2.14,1.79.23l.85.11a2.23,2.23,0,0,1,1,.36,10.68,10.68,0,0,1,2.5,2.67c.7,1,1.34,2,2,3s1.26,2,1.93,2.93a5,5,0,0,0,1.06,1.18c.11.06,0,0,0,0h0s0-.08.08-.11a1.14,1.14,0,0,1,.22-.22,2.44,2.44,0,0,1,1-.43,13.46,13.46,0,0,1,3.63-.12c1.19.09,2.37.25,3.54.44a55.27,55.27,0,0,1,6.94,1.58l-.43.22a8.41,8.41,0,0,1,3.61-3.23,20.58,20.58,0,0,1,4.38-1.79,14.78,14.78,0,0,1,4.73-.6,7.51,7.51,0,0,1,2.38.51,8.42,8.42,0,0,1,1.1.6,9,9,0,0,1,.91.83,5.66,5.66,0,0,1,1.19,2.16,7.42,7.42,0,0,1,.24,2.43,13.21,13.21,0,0,1-1.25,4.6,21.21,21.21,0,0,1-1.1,2.07,3.35,3.35,0,0,0-.2,2.1,7.13,7.13,0,0,1,0,1.23,3.83,3.83,0,0,1-.35,1.24,4.47,4.47,0,0,1-.74,1,1.47,1.47,0,0,1-1.4.31,5,5,0,0,1-2-1.46A17.51,17.51,0,0,1,122.89,22c-.45-.65-.87-1.31-1.26-2l-.29-.52a1.11,1.11,0,0,1-.15-.34.89.89,0,0,1,0-.43,3.19,3.19,0,0,1,.58-1.15,41,41,0,0,1,3.11-3.54,14.32,14.32,0,0,0,1.43-1.76.87.87,0,0,0,.13-.32s-.06-.05-.22-.08a4.16,4.16,0,0,0-1.07,0,14.31,14.31,0,0,0-4.4,1.11,5.74,5.74,0,0,0-1.86,1.18c-.49.43-.31,1.16,0,1.84a19.93,19.93,0,0,0,2.58,3.78l3,3.58c.49.61,1,1.22,1.45,1.85a9.83,9.83,0,0,1,.67,1,4,4,0,0,1,.39,1.19,9.33,9.33,0,0,1-.72,4.72,33.58,33.58,0,0,1-4.77,8.11c-2.16,2.3-4.33,4.48-6.26,6.92A21.77,21.77,0,0,0,112.68,51a4.54,4.54,0,0,0-.55,2.1c0,.29.17.72.25,1.1s.14.79.18,1.18a24.13,24.13,0,0,1-1.08,9.33,32.12,32.12,0,0,1-1.68,4.4A16.44,16.44,0,0,1,107,73a19.35,19.35,0,0,1-8.11,4.7c-1.48.49-3,.78-4.5,1.23a6.43,6.43,0,0,0-1,.41,1.1,1.1,0,0,0-.36.28c-.05.08,0,.11,0,.25A7,7,0,0,0,94.92,81l1.41.74-1.56-.28a21.4,21.4,0,0,0-3.47-.37,8.74,8.74,0,0,0-1.7.15,2.52,2.52,0,0,0-1.42.7A1.36,1.36,0,0,0,88,83.37a4,4,0,0,0,.89,1.39,5.43,5.43,0,0,0,2.9,1.61l-.17.42A11.07,11.07,0,0,0,89.7,85.7a4.14,4.14,0,0,0-1-.29.85.85,0,0,0-.82.22,1.34,1.34,0,0,0-.24.89,2.16,2.16,0,0,0,.18,1,5.31,5.31,0,0,0,1.33,1.64,25.76,25.76,0,0,0,7.73,4.19,30.21,30.21,0,0,0,8.63,1.86,14.48,14.48,0,0,0,4.36-.39,8.2,8.2,0,0,0,2-.83,12.59,12.59,0,0,0,1.84-1.19,5,5,0,0,0,2-3.63A9.66,9.66,0,0,0,114.57,85c-.15-.35-.31-.68-.44-1a4,4,0,0,0-.21-.49,1.44,1.44,0,0,0-.32-.38,6.35,6.35,0,0,0-1.85-1.1,26.46,26.46,0,0,0-4.23-1.27,40.76,40.76,0,0,0-4.38-.71c-.37,0-.74-.06-1.1-.07a2.09,2.09,0,0,0-.48,0s0,0,0-.07,0,0,0-.08l0,0a1,1,0,0,0,.21.11,9.78,9.78,0,0,0,2.11.56,33.12,33.12,0,0,0,8.84.24l-.14.12a4.08,4.08,0,0,0,0-2.47,4.91,4.91,0,0,0-1.41-2A12.87,12.87,0,0,0,106.73,74,26.31,26.31,0,0,0,101.67,73a17.14,17.14,0,0,0-2.58-.11,2.3,2.3,0,0,0-1.19.28l-1.14.62c-1.53.83-3.06,1.66-4.6,2.46-.77.4-1.54.8-2.33,1.17a13.07,13.07,0,0,1-1.22.51,2.78,2.78,0,0,1-1.34.05,9.44,9.44,0,0,0-5,.82,8.45,8.45,0,0,0-3.58,3.57v0a7.19,7.19,0,0,0-.15,4.84A6.2,6.2,0,0,0,82,90.45a13.57,13.57,0,0,0,2.36.77c.4.09.81.17,1.22.24l.62.09.32,0h.08s0-.06.08.1-.06.11-.08.13h-.07l-.17,0c-1.69.13-3.35.16-5,.19-3.35,0-6.7,0-10-.24-1.67-.13-3.34-.28-5-.56a15.62,15.62,0,0,1-4.81-1.48,13.62,13.62,0,0,0-4.81-1.2,39.71,39.71,0,0,0-5,0,66.45,66.45,0,0,0-9.93,1.38,47.25,47.25,0,0,0-4.84,1.29,27,27,0,0,0-4.56,2,12.56,12.56,0,0,1-4.68,1.8,12.73,12.73,0,0,1-5-.54Z" transform="translate(0 0)" style="fill:#d6cdc4"/></g></svg>