<svg id="b5f526c8-ed97-4cd7-a41e-93bc400b6600" data-name="Calque 1" xmlns="http://www.w3.org/2000/svg" viewBox="0 0 354.32 414.51"><path d="M88.07,53.11a6.84,6.84,0,0,0,.92-6,6.18,6.18,0,0,0-4.45-4.12,14.34,14.34,0,0,0-6.32-.06,17,17,0,0,0-5.84,2.46A14.92,14.92,0,0,0,68,49.86a11.49,11.49,0,0,0-1.74,6A12.3,12.3,0,0,0,67.92,62a23,23,0,0,0,4,4.91,51.52,51.52,0,0,0,10.29,7.55,45.54,45.54,0,0,0,11.83,4.73,27.19,27.19,0,0,0,12.65.18,21.56,21.56,0,0,0,10.79-6.45h0a48,48,0,0,0,9.12-19.07,42.05,42.05,0,0,0-.51-21.08A39.59,39.59,0,0,0,121.8,23a42.19,42.19,0,0,0-6.86-8.1,48.88,48.88,0,0,0-8.66-6.18l-2.37-1.22-1.19-.6-1.23-.51L99,5.39c-.83-.31-1.68-.58-2.51-.87a84,84,0,0,0-20.9-4A105.92,105.92,0,0,0,54.33,1,56.7,56.7,0,0,0,34.24,7.73a53.45,53.45,0,0,0-15.91,14A70.4,70.4,0,0,0,8.22,40.36,98.64,98.64,0,0,0,3.19,61,128.34,128.34,0,0,0,2.06,82.32,122.41,122.41,0,0,0,4.42,103.5a87.25,87.25,0,0,0,2.73,10.3,82.61,82.61,0,0,0,4.24,9.77q4.61,9.63,9.34,19.21c6.33,12.75,12.88,25.4,19.91,37.78,3.51,6.19,7.17,12.3,11,18.27a164.93,164.93,0,0,0,12.56,17.23,57.45,57.45,0,0,0,7.52,7.52c.68.56,1.42,1,2.13,1.58l2.21,1.49c1.49,1,2.94,2,4.4,3a55,55,0,0,1,8.16,6.93,20.25,20.25,0,0,1,1.7,2.1c.27.35.46.77.7,1.15a6.86,6.86,0,0,1,.61,1.21,13.29,13.29,0,0,1,1.08,5.27A51.86,51.86,0,0,1,91.26,257c-.75,3.47-1.31,7-1.88,10.5A102,102,0,0,1,87.27,278c-1,3.42-2.27,6.9-4.8,9.54a10.79,10.79,0,0,1-4.56,2.88,14.73,14.73,0,0,1-5.35.63c-3.58-.27-7.1-.72-10.64-1.07-7.08-.71-14.19-1.41-21.28-1a35.57,35.57,0,0,0-5.25.68,16,16,0,0,0-4.92,1.79,6.7,6.7,0,0,0-3.15,3.91,7.34,7.34,0,0,0-.19,2.55,11.31,11.31,0,0,0,.78,2.48,63.39,63.39,0,0,0,5.32,9.19c2,2.95,4.07,5.83,6.2,8.68C48,329.57,57.26,340.41,66.8,351s19.42,20.82,29.79,30.57c5.19,4.87,10.51,9.61,16.08,14,2.8,2.2,5.66,4.31,8.63,6.24a33.7,33.7,0,0,0,9.51,4.55l-.35.23a15.24,15.24,0,0,0-.17-4.9,37,37,0,0,0-1.2-4.83,78.72,78.72,0,0,0-3.71-9.28A185.83,185.83,0,0,0,115.79,370c-7-11.42-14.64-22.38-22.69-33.07s-16.5-21.06-25.42-31c-4.47-5-9.05-9.84-13.88-14.46-2.41-2.31-4.89-4.55-7.48-6.65A32.49,32.49,0,0,0,38,279.54H38a19.26,19.26,0,0,1-8.32-3.38,40.34,40.34,0,0,1-6.74-5.9,74.56,74.56,0,0,1-10.26-14.6A106.32,106.32,0,0,1,1.22,222c-1.89-11.74-1.74-23.95,1.57-35.45a59.6,59.6,0,0,1,7.43-16.22,57.62,57.62,0,0,1,12-13.17l.05,0,.07,0a100.39,100.39,0,0,1,12.71-2.46,102.91,102.91,0,0,1,12.9-.9A68.22,68.22,0,0,1,73.41,158,41.17,41.17,0,0,1,93.2,174.26c.62.89,1.06,1.89,1.6,2.83l.78,1.43.63,1.49c.42,1,.87,2,1.25,3l1,3.09c.15.52.35,1,.46,1.56l.35,1.58.71,3.17c.29,2.14.63,4.28.86,6.42,1.69,17.13,2.27,34.34,2.9,51.52s1.42,34.39,4.44,51.3c.75,4.23,1.7,8.41,2.76,12.57s2.36,8.24,3.87,12.26a114.86,114.86,0,0,0,5.1,11.79c.91,1.94,2,3.79,3,5.68.53.93,1.1,1.84,1.65,2.76s1.09,1.84,1.7,2.72A91.06,91.06,0,0,0,143,368.81,146.1,146.1,0,0,0,163.72,384a206.18,206.18,0,0,0,47,20.73,201.85,201.85,0,0,0,50.59,8.77A151.7,151.7,0,0,0,287,412.34a112.74,112.74,0,0,0,24.9-6.11,152,152,0,0,1,24.75-7.44,53.67,53.67,0,0,1,6.45-.84,23.23,23.23,0,0,1,6.54.35,7.9,7.9,0,0,1,3.11,1.35,3.87,3.87,0,0,1,1.62,3.1,6.21,6.21,0,0,1-1,3.26,12.65,12.65,0,0,1-2.15,2.56,23.51,23.51,0,0,1-11.74,5.55,23.85,23.85,0,0,1-6.53.28l-3.24-.27-3.2-.48a122.73,122.73,0,0,1-12.63-2.85c-4.16-1.13-8.27-2.4-12.38-3.64-8.22-2.53-16.44-5-24.76-7.16s-16.73-3.91-25.2-5.25c-4.24-.75-8.5-1.18-12.77-1.77a19.9,19.9,0,0,1-11.81-5.32c-3.18-3.13-4.84-7.44-5.56-11.72a49.07,49.07,0,0,1-.18-13,121.67,121.67,0,0,1,5.93-25.16,252.39,252.39,0,0,1,9.56-24c3.59-7.84,7.43-15.55,11.71-23,.55-.94,1.09-1.86,1.72-2.79l.13-.18c.11-.1,0,0,.3-.28a.59.59,0,0,1,.6,0,1.48,1.48,0,0,1,.26.16,4.43,4.43,0,0,1,.65.65,11.5,11.5,0,0,1,.95,1.4,13.42,13.42,0,0,1,1.91,6.35,6.87,6.87,0,0,1-.76,3.34,5.71,5.71,0,0,1-1,1.41L251.93,302c-1.46,1.53-2.83,3.18-4.15,4.86a89.41,89.41,0,0,0-7.14,10.64,37.17,37.17,0,0,0-2.71,5.75c-.19.49-.31,1-.47,1.49l-.24.82-.31.78a15.79,15.79,0,0,1-1.69,2.87,26.2,26.2,0,0,1-10.14,8.16,15.77,15.77,0,0,1-6.44,1.48,9.83,9.83,0,0,1-6.26-2.27l-.45-.38.45-.38a30.33,30.33,0,0,0,7.39-10.2,57.43,57.43,0,0,0,4.1-12.09,62.26,62.26,0,0,0,1.61-12.67,37.35,37.35,0,0,0-.36-6.35,13.21,13.21,0,0,0-2-5.79l0,0a9.47,9.47,0,0,0-2.72-1.8,14.7,14.7,0,0,0-3.23-.89,20,20,0,0,0-3.37-.27,23.83,23.83,0,0,0-3.39.22l.36-.28a28.47,28.47,0,0,0-1.36,4.44,11.22,11.22,0,0,0-.2,4.49,2.88,2.88,0,0,0,1,1.7,1.24,1.24,0,0,0,.82.25,2.79,2.79,0,0,0,1-.29,15.48,15.48,0,0,0,3.55-2.88c2.2-2.22,4.22-4.65,6.34-7a46.94,46.94,0,0,1,3.35-3.42,10.32,10.32,0,0,1,2-1.45,2.84,2.84,0,0,1,1.35-.35l.41.07a1.73,1.73,0,0,1,.33.13l.13.07a.59.59,0,0,1,.17.2.4.4,0,0,1,.05.25.48.48,0,0,1-.21.34.74.74,0,0,1-.36.11h-.34c-6.36-.59-12.56-1.61-18.85-2-.78,0-1.57-.07-2.34-.06a6.71,6.71,0,0,0-2.15.26c-.12,0-.29.38-.37.7a5.41,5.41,0,0,0-.14,1.09,10.11,10.11,0,0,0,.15,2.26,5.53,5.53,0,0,0,.7,2c.09.11.19.21.25.21s.08,0,.18,0a2.34,2.34,0,0,0,.58-.77,20.18,20.18,0,0,0,1.39-4.4v.13a13,13,0,0,0-.51-2.71,5,5,0,0,0-1.31-2.25,2.72,2.72,0,0,0-2.3-.68,4,4,0,0,0-2.23,1.2,2.64,2.64,0,0,0-.64,1c-.14.39,0,.63.06,1.24a28.67,28.67,0,0,1,.08,2.91c0,1.91-.06,3.81,0,5.71a71.39,71.39,0,0,0,.83,11.33,34.58,34.58,0,0,0,3.39,10.72l-.32-.21A23.64,23.64,0,0,0,221,305.28a22.21,22.21,0,0,0,5.63-6.24,15.13,15.13,0,0,0,2.26-8v-.27l.26-.11a24.72,24.72,0,0,0,7.32-4.1,5,5,0,0,0,2-3.34,2.87,2.87,0,0,0-.14-.93c-.1-.31-.27-.5-.34-.47a1.3,1.3,0,0,0-.61.43,6.3,6.3,0,0,0-.6.81,34.65,34.65,0,0,0-3.34,7.77,39.29,39.29,0,0,0-1,4.11,18.78,18.78,0,0,0-.3,2.09,6.78,6.78,0,0,0,.06,2,1.34,1.34,0,0,0,.38.72,1.09,1.09,0,0,0,.76.15,4.84,4.84,0,0,0,1.8-.79,16.11,16.11,0,0,0,3.13-2.77,17.17,17.17,0,0,0,4.1-7.23,4.23,4.23,0,0,0-.66-3.75.73.73,0,0,0-.62-.27,1.59,1.59,0,0,0-.68.5,7.44,7.44,0,0,0-1,1.76,35.69,35.69,0,0,0-2.2,8.18c-.22,1.4-.38,2.81-.46,4.23a16.63,16.63,0,0,0,.2,4.18c.15.62.41,1.39.86,1.41a1.21,1.21,0,0,0,.8-.21,4.53,4.53,0,0,0,.82-.58,19.55,19.55,0,0,0,2.73-3.19,58.72,58.72,0,0,0,4.39-7.31c.64-1.27,1.26-2.55,1.78-3.87a14.6,14.6,0,0,0,.68-2,4.27,4.27,0,0,0,.16-1,5.22,5.22,0,0,0-.16-1,29.44,29.44,0,0,0-3.65-7.61,27.1,27.1,0,0,0-2.55-3.37,12.12,12.12,0,0,0-1.53-1.43,4.16,4.16,0,0,0-1.76-.87c-.63-.15-1.12.24-1.69.67a7.55,7.55,0,0,0-1.37,1.51,7.33,7.33,0,0,0-1.2,3.88,5.77,5.77,0,0,0,.07,1,2.06,2.06,0,0,0,.1.44s0,0,0,0a.14.14,0,0,0-.1,0,.41.41,0,0,0,.12-.07c.47-.41.94-1,1.44-1.52a8,8,0,0,1,1.73-1.41,3.25,3.25,0,0,1,1.11-.38,2.56,2.56,0,0,1,.62,0c.2,0,.41.09.54.11a.59.59,0,0,0,.65-.18,1,1,0,0,0,.07-.8,3.5,3.5,0,0,0-1-1.65,6.38,6.38,0,0,0-3.71-1.55,10.22,10.22,0,0,0-4.11.45,31.65,31.65,0,0,0-3.88,1.72,14.59,14.59,0,0,1-4.13,1.39,12.34,12.34,0,0,1-4.37-.09,31,31,0,0,1-4.17-1.15c-1.36-.45-2.71-.94-4.05-1.45a38.2,38.2,0,0,0-4-1.36,9.44,9.44,0,0,0-4.13-.1,21.88,21.88,0,0,0-7.69,3.43,44.83,44.83,0,0,0-6.68,5.28,23.37,23.37,0,0,0-2.78,3.19c-.18.3-.38.59-.55.89a8.55,8.55,0,0,0-.4.94,9.48,9.48,0,0,0-.29,2.06c-.21,2.84-.29,5.69-.22,8.54a41.92,41.92,0,0,0,.93,8.46,7.38,7.38,0,0,0,.29,1,5.36,5.36,0,0,0,.36,1,4.37,4.37,0,0,0,.48.91l.29.42c.09.17.25.22.34.59a.28.28,0,0,1-.07.24.34.34,0,0,1-.22.12.65.65,0,0,1-.22,0,1.63,1.63,0,0,1-.29-.1c-.18-.08-.35-.16-.51-.25-.32-.17-.63-.36-.94-.56-.61-.39-1.2-.8-1.78-1.23a64.5,64.5,0,0,1-6.53-5.6,60.06,60.06,0,0,1-10.52-13.58,35.34,35.34,0,0,1-4.72-16.43v-.34l.31.13a37,37,0,0,1,5.21,2.93c1.66,1.08,3.29,2.21,4.92,3.33s3.26,2.25,4.94,3.3a17.93,17.93,0,0,0,5.26,2.52l.43.09-.35.25a17.63,17.63,0,0,0-3.37,3.26,27.15,27.15,0,0,0-2.53,4,34.78,34.78,0,0,0-1.92,4.33,38.11,38.11,0,0,0-1.38,4.53c-.19.77-.34,1.55-.45,2.32a7.52,7.52,0,0,0-.06,1.15,1.58,1.58,0,0,1-.46,1.2,7,7,0,0,1-1.93,1.47,13.12,13.12,0,0,1-2.21,1,13,13,0,0,1-4.74.73,7.85,7.85,0,0,1-4.51-1.58l.21-.21,6.61,9.17a79.76,79.76,0,0,0,7.16,8.7,20.43,20.43,0,0,0,4.37,3.5,5.9,5.9,0,0,0,5.3.65,3.92,3.92,0,0,0,1.89-1.92,8.12,8.12,0,0,0,.79-2.65,15.66,15.66,0,0,0-.29-5.58,22.5,22.5,0,0,0-5.15-9.87,27.37,27.37,0,0,0-9-6.59c-6.89-3.12-14.63-3.73-22.1-3.22v-.1c7.48-.52,15.24.06,22.17,3.19a27.28,27.28,0,0,1,9.1,6.61,22.77,22.77,0,0,1,5.22,9.94,15.78,15.78,0,0,1,.3,5.65,8.14,8.14,0,0,1-.81,2.72,4.18,4.18,0,0,1-2,2,5,5,0,0,1-2.83.33,8,8,0,0,1-2.68-1,21.3,21.3,0,0,1-4.43-3.53,81.1,81.1,0,0,1-7.2-8.72l-6.63-9.15-.64-.89.86.68a7.42,7.42,0,0,0,4.34,1.5,12.58,12.58,0,0,0,4.62-.71,9.71,9.71,0,0,0,4-2.35,1.28,1.28,0,0,0,.39-.95,8.27,8.27,0,0,1,0-1.23c.12-.79.27-1.58.45-2.36a36.46,36.46,0,0,1,1.39-4.57,33.47,33.47,0,0,1,1.93-4.38,20.41,20.41,0,0,1,6-7.39l.07.35a18.36,18.36,0,0,1-5.42-2.56c-1.68-1.05-3.31-2.18-4.95-3.3s-3.26-2.24-4.92-3.32a38.36,38.36,0,0,0-5.15-2.88l.3-.2a34.91,34.91,0,0,0,4.7,16.21,59,59,0,0,0,10.45,13.46,63.44,63.44,0,0,0,6.48,5.55c.57.42,1.16.83,1.75,1.21.3.19.6.37.91.54a4.81,4.81,0,0,0,.46.22,1.11,1.11,0,0,0,.21.08h0a.26.26,0,0,0-.1.06c0,.07-.05.07,0,.12s0-.05-.07-.1l-.16-.2-.32-.47a4.86,4.86,0,0,1-.52-1,7.52,7.52,0,0,1-.39-1c-.11-.34-.22-.69-.3-1.05a42.67,42.67,0,0,1-.95-8.56q-.11-4.31.21-8.61a10.42,10.42,0,0,1,.31-2.17,10.63,10.63,0,0,1,.44-1c.18-.32.39-.63.58-.94a24.76,24.76,0,0,1,2.84-3.28,46.48,46.48,0,0,1,6.76-5.35,35.71,35.71,0,0,1,3.76-2.14,16.93,16.93,0,0,1,4.12-1.38,10.22,10.22,0,0,1,4.37.1,38.68,38.68,0,0,1,4.1,1.38c1.34.5,2.68,1,4,1.44a32,32,0,0,0,4.1,1.12,11.64,11.64,0,0,0,4.16.09,14.21,14.21,0,0,0,4-1.34,30.11,30.11,0,0,1,4-1.76,10.67,10.67,0,0,1,4.35-.49,7,7,0,0,1,4.06,1.72,4,4,0,0,1,1.21,1.94,1.64,1.64,0,0,1-.16,1.28,1.19,1.19,0,0,1-1.26.44c-1.33-.47-2.49.54-3.45,1.51-.5.51-.9,1.06-1.51,1.59a1.2,1.2,0,0,1-.36.18A.49.49,0,0,1,235,281a.54.54,0,0,1-.19-.23,2.91,2.91,0,0,1-.15-.6,6.18,6.18,0,0,1-.07-1.13,8,8,0,0,1,1.29-4.21,8.12,8.12,0,0,1,1.5-1.65,5.25,5.25,0,0,1,1-.64,2,2,0,0,1,1.22-.17,4.62,4.62,0,0,1,2,1,12.76,12.76,0,0,1,1.61,1.5,27.35,27.35,0,0,1,2.62,3.46,36.69,36.69,0,0,1,2.15,3.75,21.2,21.2,0,0,1,1.6,4.05,5.13,5.13,0,0,1,.17,1.13,4.54,4.54,0,0,1-.17,1.14,17.35,17.35,0,0,1-.7,2.07c-.54,1.35-1.16,2.64-1.81,3.93a59.82,59.82,0,0,1-4.43,7.4,19.68,19.68,0,0,1-2.84,3.3,5.71,5.71,0,0,1-.92.67,1.93,1.93,0,0,1-1.24.28,1.39,1.39,0,0,1-.65-.3,2.27,2.27,0,0,1-.38-.53,4.26,4.26,0,0,1-.37-1.09,17,17,0,0,1-.23-4.37,41.25,41.25,0,0,1,.47-4.3,35.92,35.92,0,0,1,2.23-8.35,8.1,8.1,0,0,1,1.14-1.93,2.16,2.16,0,0,1,1.05-.73,1.45,1.45,0,0,1,1.28.47,4.93,4.93,0,0,1,.84,4.38,17.83,17.83,0,0,1-4.26,7.55,17.16,17.16,0,0,1-3.27,2.91,5.59,5.59,0,0,1-2.1.89,1.86,1.86,0,0,1-1.29-.29,2,2,0,0,1-.64-1.12,7.14,7.14,0,0,1-.08-2.25,19,19,0,0,1,.31-2.16,37.44,37.44,0,0,1,1.07-4.2,35.32,35.32,0,0,1,3.41-8,7.09,7.09,0,0,1,.68-.9,1.73,1.73,0,0,1,1.16-.67h.23l.2.1a.8.8,0,0,1,.3.27,1.83,1.83,0,0,1,.3.59,3.38,3.38,0,0,1,.18,1.18,5.71,5.71,0,0,1-2.2,3.89,25.6,25.6,0,0,1-7.56,4.26l.25-.37a15.78,15.78,0,0,1-2.36,8.37,22.89,22.89,0,0,1-5.81,6.47,24.51,24.51,0,0,1-16.37,5l-.22,0-.1-.19a35.5,35.5,0,0,1-3.49-11,73.29,73.29,0,0,1-.86-11.45c0-1.91,0-3.82,0-5.72a25.74,25.74,0,0,0-.08-2.8c0-.23-.05-.35-.12-.7a2.13,2.13,0,0,1,.09-.88,3.38,3.38,0,0,1,.83-1.38,4.87,4.87,0,0,1,2.72-1.45,3.6,3.6,0,0,1,3,.88,5.94,5.94,0,0,1,1.55,2.62,13.87,13.87,0,0,1,.55,2.9v.06l0,.07a20.92,20.92,0,0,1-1.47,4.61,3,3,0,0,1-.86,1.08,1.33,1.33,0,0,1-.42.18.89.89,0,0,1-.51,0,1.41,1.41,0,0,1-.66-.51,6.16,6.16,0,0,1-.86-2.4,11.14,11.14,0,0,1-.16-2.45,5.53,5.53,0,0,1,.17-1.26,1.85,1.85,0,0,1,.81-1.26,7.07,7.07,0,0,1,2.53-.36c.8,0,1.6,0,2.39.06,6.33.35,12.62,1.37,18.84,1.93h.25s.08,0-.08,0a.42.42,0,0,0-.18.32.65.65,0,0,0,0,.21.54.54,0,0,0,.12.15h0l-.22-.08a.57.57,0,0,1-.18,0,2,2,0,0,0-.9.26,9.72,9.72,0,0,0-1.81,1.32c-1.15,1-2.22,2.19-3.28,3.36-2.11,2.33-4.12,4.77-6.36,7-.56.57-1.14,1.12-1.76,1.64a9.86,9.86,0,0,1-2,1.41,3.54,3.54,0,0,1-1.29.39,2.27,2.27,0,0,1-1.4-.41,3.69,3.69,0,0,1-1.41-2.24,11.84,11.84,0,0,1,.18-4.9,28.84,28.84,0,0,1,1.41-4.61l.09-.24.26,0a26.43,26.43,0,0,1,3.54-.24,23.31,23.31,0,0,1,3.53.27,16.16,16.16,0,0,1,3.44,1,10.46,10.46,0,0,1,3,2v0l0,0a14.14,14.14,0,0,1,2.24,6.23,39.63,39.63,0,0,1,.38,6.52,64,64,0,0,1-1.62,12.87,59,59,0,0,1-4.16,12.3A31.15,31.15,0,0,1,213,336.55v-.76a8.86,8.86,0,0,0,5.63,2,14.65,14.65,0,0,0,6-1.39,25.12,25.12,0,0,0,9.74-7.83,14.6,14.6,0,0,0,1.58-2.68l.28-.72.22-.73c.17-.53.3-1.07.5-1.58a38.34,38.34,0,0,1,2.78-5.9A88.7,88.7,0,0,1,247,306.23a63.94,63.94,0,0,1,4.22-4.94l1.14-1.15a4.77,4.77,0,0,0,.86-1.18,5.91,5.91,0,0,0,.64-2.88,12.41,12.41,0,0,0-1.78-5.87,9.43,9.43,0,0,0-.86-1.27,3.18,3.18,0,0,0-.47-.49l-.08-.05s0,0,.23,0,0,0,0,0l-.11.15c-.58.85-1.13,1.79-1.66,2.71-4.27,7.43-8.1,15.13-11.68,22.94A250.88,250.88,0,0,0,228,338.1a120.82,120.82,0,0,0-5.89,25,47.58,47.58,0,0,0,.16,12.73A20.34,20.34,0,0,0,227.53,387a19,19,0,0,0,11.27,5.05c4.25.59,8.55,1,12.79,1.77q12.77,2,25.29,5.28c8.34,2.15,16.58,4.65,24.8,7.18,4.11,1.24,8.21,2.52,12.35,3.64a120.56,120.56,0,0,0,12.53,2.83l3.17.47,3.19.27a23.7,23.7,0,0,0,17.59-5.58,11.54,11.54,0,0,0,2-2.37,5.28,5.28,0,0,0,.91-2.78,3,3,0,0,0-1.26-2.4,7.11,7.11,0,0,0-2.77-1.19,22.76,22.76,0,0,0-6.29-.33,54.29,54.29,0,0,0-6.33.83,150.61,150.61,0,0,0-24.6,7.38,113.14,113.14,0,0,1-25.1,6.16,153.64,153.64,0,0,1-25.82,1.12,202.49,202.49,0,0,1-50.8-8.83,206.51,206.51,0,0,1-47.16-20.83,145.55,145.55,0,0,1-20.86-15.25,91.55,91.55,0,0,1-16.88-19.53c-.61-.89-1.16-1.82-1.71-2.75s-1.13-1.84-1.66-2.78c-1-1.9-2.1-3.77-3-5.72A116.39,116.39,0,0,1,114,326.77c-1.52-4-2.75-8.18-3.89-12.33s-2-8.39-2.77-12.63c-3-17-3.77-34.24-4.43-51.42s-1.2-34.37-2.88-51.48c-.22-2.13-.56-4.24-.84-6.36l-.7-3.13-.35-1.56c-.11-.52-.31-1-.46-1.54l-1-3c-.37-1-.82-2-1.22-3l-.62-1.47-.77-1.4c-.53-.93-1-1.91-1.57-2.78a40.38,40.38,0,0,0-19.43-15.94A67.59,67.59,0,0,0,48,154.46a101.74,101.74,0,0,0-12.81.89,97.66,97.66,0,0,0-12.6,2.44l.12-.07a56.85,56.85,0,0,0-11.9,13,58.56,58.56,0,0,0-7.35,16C.17,198.13,0,210.24,1.89,221.9a105.72,105.72,0,0,0,11.4,33.45,73.81,73.81,0,0,0,10.16,14.48,38.91,38.91,0,0,0,6.63,5.8,18.5,18.5,0,0,0,8,3.28h.07a33.07,33.07,0,0,1,8.55,5.37c2.61,2.12,5.1,4.37,7.52,6.69,4.84,4.64,9.43,9.52,13.9,14.5,8.93,10,17.38,20.39,25.45,31.08s15.73,21.68,22.71,33.12a189.24,189.24,0,0,1,9.61,17.65,81.29,81.29,0,0,1,3.73,9.35,37.29,37.29,0,0,1,1.21,4.9,16.08,16.08,0,0,1,.17,5.09l0,.31-.3-.08a34,34,0,0,1-9.68-4.63c-3-1.94-5.87-4.07-8.67-6.27-5.59-4.43-10.92-9.18-16.11-14.06C85.84,372.18,76,361.9,66.4,351.34S47.62,329.9,39,318.52c-2.14-2.85-4.24-5.73-6.22-8.7a63.74,63.74,0,0,1-5.36-9.28,11.91,11.91,0,0,1-.81-2.6,7.71,7.71,0,0,1,.2-2.75,7.24,7.24,0,0,1,3.37-4.2,16.63,16.63,0,0,1,5.07-1.85,37,37,0,0,1,5.33-.69c7.15-.41,14.28.29,21.36,1,3.54.35,7.08.81,10.61,1.07a14,14,0,0,0,5.19-.6,10.36,10.36,0,0,0,4.37-2.75c2.44-2.55,3.74-6,4.69-9.35a99.46,99.46,0,0,0,2.11-10.44c.58-3.51,1.13-7,1.89-10.52a51.59,51.59,0,0,0,1.48-10.51,12.81,12.81,0,0,0-1-5.11,5.84,5.84,0,0,0-.59-1.17A9.83,9.83,0,0,0,90,239a19.33,19.33,0,0,0-1.65-2.06,55,55,0,0,0-8.1-6.87c-1.45-1-2.89-2.06-4.38-3l-2.21-1.49c-.72-.54-1.47-1-2.16-1.6a58.22,58.22,0,0,1-7.56-7.58,164.83,164.83,0,0,1-12.58-17.27c-3.87-6-7.53-12.11-11-18.3-7-12.4-13.57-25.06-19.9-37.82q-4.74-9.57-9.33-19.22a82,82,0,0,1-4.24-9.81A87.93,87.93,0,0,1,4.1,103.56,123.08,123.08,0,0,1,1.75,82.33,130,130,0,0,1,2.89,61,100,100,0,0,1,8,40.26,70.37,70.37,0,0,1,18.12,21.52a53.54,53.54,0,0,1,16-14A56.57,56.57,0,0,1,54.3.8,107.18,107.18,0,0,1,75.64.3a84.59,84.59,0,0,1,21,4c.84.29,1.69.56,2.52.87l2.47,1,1.23.52,1.19.6,2.39,1.22a49.24,49.24,0,0,1,8.68,6.22,42,42,0,0,1,6.9,8.15,39.82,39.82,0,0,1,4.36,9.74,42.29,42.29,0,0,1,.5,21.17A48.23,48.23,0,0,1,117.66,73h0a21.68,21.68,0,0,1-10.87,6.49,27.21,27.21,0,0,1-12.72-.19,45.23,45.23,0,0,1-11.87-4.75A51.74,51.74,0,0,1,71.88,67,23,23,0,0,1,67.81,62a12.46,12.46,0,0,1-1.72-6.12,11.6,11.6,0,0,1,1.76-6.11,14.78,14.78,0,0,1,4.46-4.55,15.68,15.68,0,0,1,12.26-2.41A6.27,6.27,0,0,1,89.09,47a6.94,6.94,0,0,1-1,6.15Z" style="fill:#d6cdc4"/></svg>