<?xml version="1.0" encoding="utf-8"?>
<!-- Generator: Adobe Illustrator 24.3.0, SVG Export Plug-In . SVG Version: 6.00 Build 0)  -->
<svg version="1.1" id="a5dff48b-6b93-4a0e-ad7b-1d9cb08e0237"
	 xmlns="http://www.w3.org/2000/svg" xmlns:xlink="http://www.w3.org/1999/xlink" x="0px" y="0px" viewBox="0 0 125.4 140.9"
	 style="enable-background:new 0 0 125.4 140.9;" xml:space="preserve">
<style type="text/css">
	.st0{enable-background:new    ;}
	.st1{fill:#634E42;}
	.st2{fill:none;}
	.st3{fill:#839690;}
	.st4{fill:none;stroke:#634E42;stroke-miterlimit:10;}
</style>
<g class="st0">
	<path class="st1" d="M24.5,104.2h-4.3l-0.9,2.2h-1.2L22.3,96l4.3,10.5h-1.2L24.5,104.2z M20.6,103.1H24L22.3,99L20.6,103.1z"/>
	<path class="st1" d="M36.8,98.3c-0.4,0.4-0.7,0.9-0.9,1.4s-0.3,1-0.3,1.6s0.1,1.1,0.3,1.6c0.2,0.5,0.5,1,0.9,1.4s0.9,0.7,1.4,0.9
		s1,0.3,1.6,0.3c0.5,0,1-0.1,1.6-0.3c0.5-0.2,1-0.5,1.4-0.9l0.8,0.8c-0.5,0.5-1.1,0.9-1.7,1.2c-0.6,0.3-1.3,0.4-2,0.4
		s-1.3-0.1-2-0.4s-1.2-0.6-1.7-1.2c-0.5-0.5-0.9-1.1-1.2-1.7c-0.3-0.6-0.4-1.3-0.4-2s0.1-1.3,0.4-2c0.3-0.6,0.6-1.2,1.2-1.7
		c0.5-0.5,1.1-0.9,1.7-1.2s1.3-0.4,2-0.4s1.3,0.1,2,0.4c0.6,0.3,1.2,0.6,1.7,1.2l-0.8,0.8c-0.4-0.4-0.9-0.7-1.4-0.9
		c-0.5-0.2-1-0.3-1.6-0.3c-0.5,0-1.1,0.1-1.6,0.3C37.6,97.6,37.2,97.9,36.8,98.3z"/>
</g>
<g class="st0">
	<path class="st1" d="M49,105.9c-0.3,0.2-0.5,0.3-0.8,0.4s-0.6,0.2-1,0.2c-0.4,0-0.8-0.1-1.1-0.2c-0.4-0.1-0.7-0.4-0.9-0.6
		s-0.5-0.6-0.6-0.9c-0.1-0.4-0.2-0.7-0.2-1.1c0-0.4,0.1-0.8,0.2-1.1c0.1-0.4,0.4-0.7,0.6-0.9c0.3-0.3,0.6-0.5,0.9-0.6
		c0.4-0.2,0.7-0.2,1.1-0.2c0.3,0,0.7,0.1,1,0.2c0.3,0.1,0.6,0.3,0.8,0.4v-0.6h1.1v5.8H49V105.9z M45.4,103.6c0,0.3,0,0.5,0.1,0.7
		c0.1,0.2,0.2,0.4,0.4,0.6c0.2,0.2,0.3,0.3,0.6,0.4c0.2,0.1,0.4,0.1,0.7,0.1c0.2,0,0.5,0,0.7-0.1s0.4-0.2,0.6-0.4
		c0.2-0.1,0.3-0.3,0.4-0.5c0.1-0.2,0.2-0.4,0.2-0.7v-0.2c0-0.2-0.1-0.5-0.2-0.7c-0.1-0.2-0.2-0.4-0.4-0.5c-0.2-0.2-0.4-0.3-0.6-0.4
		s-0.4-0.1-0.7-0.1c-0.3,0-0.5,0-0.7,0.1c-0.2,0.1-0.4,0.2-0.6,0.4s-0.3,0.4-0.4,0.6C45.4,103.1,45.4,103.3,45.4,103.6z"/>
</g>
<g class="st0">
	<path class="st1" d="M50.2,99.7v-1.1h0.8V96h1.1v2.6H53v1.1h-0.8v6.8h-1.1v-6.8H50.2z"/>
</g>
<g class="st0">
	<path class="st1" d="M44.4,111.1c0-0.4,0.1-0.8,0.2-1.1c0.1-0.4,0.4-0.7,0.6-0.9c0.3-0.3,0.6-0.5,0.9-0.6c0.4-0.2,0.7-0.2,1.1-0.2
		s0.8,0.1,1.1,0.2c0.4,0.2,0.7,0.4,0.9,0.6c0.3,0.3,0.5,0.6,0.6,0.9c0.2,0.4,0.2,0.7,0.2,1.1s-0.1,0.8-0.2,1.1
		c-0.2,0.4-0.4,0.7-0.6,0.9s-0.6,0.5-0.9,0.6c-0.4,0.2-0.7,0.2-1.1,0.2s-0.8-0.1-1.1-0.2c-0.4-0.1-0.7-0.4-0.9-0.6s-0.5-0.6-0.6-0.9
		C44.5,111.9,44.4,111.5,44.4,111.1z M45.5,111.1c0,0.3,0,0.5,0.1,0.7c0.1,0.2,0.2,0.4,0.4,0.6s0.3,0.3,0.6,0.4
		c0.2,0.1,0.4,0.1,0.7,0.1s0.5,0,0.7-0.1c0.2-0.1,0.4-0.2,0.6-0.4c0.2-0.2,0.3-0.3,0.4-0.6c0.1-0.2,0.1-0.4,0.1-0.7s0-0.5-0.1-0.7
		c-0.1-0.2-0.2-0.4-0.4-0.6c-0.2-0.2-0.4-0.3-0.6-0.4c-0.2-0.1-0.4-0.1-0.7-0.1s-0.5,0-0.7,0.1c-0.2,0.1-0.4,0.2-0.6,0.4
		c-0.2,0.2-0.3,0.4-0.4,0.6C45.6,110.6,45.5,110.8,45.5,111.1z"/>
	<path class="st1" d="M55.7,111.1c0-0.3,0-0.5-0.1-0.7c-0.1-0.2-0.2-0.4-0.4-0.6c-0.2-0.2-0.4-0.3-0.6-0.4c-0.2-0.1-0.4-0.1-0.7-0.1
		c-0.2,0-0.5,0-0.7,0.1c-0.2,0.1-0.4,0.2-0.6,0.4c-0.2,0.2-0.3,0.3-0.4,0.5c-0.1,0.2-0.1,0.4-0.2,0.7v3H51v-5.8h1.1v0.6
		c0.2-0.2,0.5-0.3,0.8-0.4s0.6-0.2,1-0.2c0.4,0,0.8,0.1,1.1,0.2c0.4,0.2,0.7,0.4,0.9,0.6c0.3,0.3,0.5,0.6,0.6,0.9
		c0.2,0.4,0.2,0.7,0.2,1.1v2.9h-1.1V111.1z"/>
</g>
<g class="st0">
	<path class="st1" d="M51.1,115.2h6.3v1.1h-2.6v9.4h-1.1v-9.4h-2.6V115.2z"/>
</g>
<g class="st0">
	<path class="st1" d="M58.3,119.8h1.1v0.6c0.2-0.2,0.5-0.3,0.8-0.4c0.3-0.1,0.6-0.2,1-0.2v1.1c-0.2,0-0.5,0-0.7,0.1
		s-0.4,0.2-0.6,0.4c-0.2,0.2-0.3,0.3-0.4,0.5c-0.1,0.2-0.1,0.4-0.2,0.7v3h-1.1V119.8z"/>
</g>
<g class="st0">
	<path class="st1" d="M63.4,124.3c0.3,0.2,0.7,0.2,1.1,0.2c0.4-0.1,0.7-0.2,1-0.5l0.8,0.8c-0.3,0.3-0.6,0.5-1,0.6
		c-0.4,0.1-0.7,0.2-1.1,0.2c-0.4,0-0.7-0.1-1.1-0.2c-0.4-0.1-0.7-0.4-1-0.7c-0.3-0.3-0.5-0.6-0.7-1c-0.1-0.4-0.2-0.7-0.2-1.1
		c0-0.4,0.1-0.7,0.2-1.1c0.1-0.4,0.4-0.7,0.7-1c0.3-0.3,0.6-0.5,1-0.6c0.4-0.1,0.7-0.2,1.1-0.2c0.4,0,0.8,0.1,1.2,0.3
		c0.4,0.2,0.8,0.5,1.2,0.9L63.4,124.3z M63,121.5c-0.3,0.3-0.4,0.6-0.5,1c-0.1,0.4,0,0.7,0.2,1.1l2.4-2.4c-0.3-0.2-0.7-0.2-1.1-0.2
		C63.6,121,63.3,121.2,63,121.5z"/>
	<path class="st1" d="M69.6,124.3c0.3,0.2,0.7,0.2,1.1,0.2c0.4-0.1,0.7-0.2,1-0.5l0.8,0.8c-0.3,0.3-0.6,0.5-1,0.6
		c-0.4,0.1-0.7,0.2-1.1,0.2c-0.4,0-0.7-0.1-1.1-0.2s-0.7-0.4-1-0.7c-0.3-0.3-0.5-0.6-0.7-1c-0.1-0.4-0.2-0.7-0.2-1.1
		c0-0.4,0.1-0.7,0.2-1.1c0.1-0.4,0.4-0.7,0.7-1c0.3-0.3,0.6-0.5,1-0.6c0.4-0.1,0.7-0.2,1.1-0.2c0.4,0,0.8,0.1,1.2,0.3
		c0.4,0.2,0.8,0.5,1.2,0.9L69.6,124.3z M69.2,121.5c-0.3,0.3-0.4,0.6-0.5,1s0,0.7,0.2,1.1l2.4-2.4c-0.3-0.2-0.7-0.2-1.1-0.2
		S69.5,121.2,69.2,121.5z"/>
</g>
<g id="e6be7eca-43cd-47e7-8996-19cc01fb4108">
	<path class="st1" d="M76.2,94.2c2.5-1.5,4.8-3.4,6.8-5.6c2-2.2,3.8-4.5,5.5-6.9c3.3-4.9,6.1-10.1,8.2-15.7
		c2.1-5.5,3.4-11.3,4.1-17.1c0.7-5.9,0.4-11.8-0.6-17.6h0.1c1.6,5.8,2.1,11.8,1.5,17.7c-0.6,6-2,11.8-4.3,17.3
		c-2.2,5.6-5,10.8-8.5,15.7c-1.7,2.4-3.6,4.7-5.7,6.8c-2,2.2-4.4,4-7,5.5L76.2,94.2z"/>
	<path class="st1" d="M118.8,96.8c-1.2-1-2.4-1.9-3.6-2.9s-2.4-2-3.4-3.1c-2.2-2.1-4.3-4.4-6.1-6.9c-1.9-2.5-3.5-5.1-4.8-7.9
		c-1.3-2.8-2.5-5.6-4.7-7.8l0.1-0.1c1.3,0.9,2.4,2.1,3.2,3.4c0.9,1.3,1.6,2.7,2.3,4c1.4,2.7,2.9,5.4,4.6,7.9
		c1.7,2.5,3.7,4.9,5.8,7.1c1,1.1,2.2,2.1,3.3,3.2s2.3,2,3.5,3L118.8,96.8z"/>
	<path class="st2" d="M105.2,32.7"/>
	<path class="st1" d="M87.5,49.4c1.5-1.4,3.1-2.9,4.5-4.5c1.5-1.5,2.7-3.2,3.8-5c1.1-1.7,1.8-3.7,2.2-5.7c0.3-2.1,0.2-4.1-0.3-6.2
		h0.1c1,1.9,1.4,4.1,1.2,6.3c-0.3,2.2-1.2,4.2-2.4,6C94.1,44,90.8,46.7,87.5,49.4L87.5,49.4z"/>
	<path class="st2" d="M86.4,0.1"/>
</g>
<g id="a4a246a8-9e04-4ec1-b51d-f1e5dfc2e590">
	<path class="st3" d="M85.3,29.8c1.5,1.7,2.4,3.8,2.8,6c-2.2-0.5-4.1-1.7-5.7-3.3c-1.5-1.7-2.4-3.8-2.8-6
		C81.8,27,83.7,28.2,85.3,29.8z"/>
	<path class="st3" d="M89.2,37.5c2.2-0.1,4.4,0.4,6.4,1.5C92,42,87,42.3,83.1,40C84.9,38.6,87,37.8,89.2,37.5z"/>
	<path class="st3" d="M102.1,65.2c2.1-0.8,4.3-1.1,6.5-0.7c-2.4,3.9-7,5.9-11.5,5C98.4,67.7,100.1,66.2,102.1,65.2z"/>
	<path class="st3" d="M90,67.6c-2.1,0.7-4.4,0.9-6.6,0.4c2.5-3.8,7.2-5.6,11.7-4.5C93.8,65.3,92.1,66.7,90,67.6z"/>
	<path class="st3" d="M118.4,86.8c2.2,0.5,4.2,1.6,5.8,3.1c-4.2,1.9-9.1,0.9-12.3-2.4C113.9,86.7,116.2,86.4,118.4,86.8z"/>
	<path class="st3" d="M117.1,100.9c-0.3,2.2-1.2,4.3-2.6,6c-2.3-4-1.8-9,1.2-12.5C116.8,96.4,117.2,98.7,117.1,100.9z"/>
	<path class="st3" d="M108.2,93c-0.3,2.2-1.2,4.3-2.6,6c-2.3-4-1.8-9,1.2-12.5C107.9,88.5,108.4,90.8,108.2,93z"/>
	<path class="st3" d="M100.4,86.5c-1.5,1.7-3.4,2.9-5.6,3.5c0.4-4.6,3.7-8.4,8.1-9.5C102.6,82.7,101.8,84.8,100.4,86.5z"/>
	<path class="st3" d="M112.1,82.4c-2.2,0.2-4.5-0.1-6.5-1.1c3.3-3.2,8.3-3.9,12.4-1.8C116.4,81,114.3,82,112.1,82.4z"/>
	<path class="st3" d="M107.6,75.4c-2.2,0.2-4.5-0.1-6.5-1.1c3.3-3.2,8.3-3.9,12.4-1.8C111.8,74.1,109.8,75.1,107.6,75.4z"/>
	<path class="st3" d="M72.8,99.9c0.7-2.1,2-4,3.7-5.4c1.4,4.4,0,9.2-3.6,12C72.2,104.3,72.2,102.1,72.8,99.9z"/>
	<path class="st3" d="M76.4,86.7c2.2-0.1,4.4,0.4,6.4,1.5c-1.8,1.4-3.9,2.2-6.1,2.4c-2.2,0.1-4.4-0.4-6.4-1.5
		C72.1,87.8,74.2,87,76.4,86.7z"/>
	<path class="st3" d="M84.6,74.9c2.2-0.1,4.4,0.4,6.4,1.5c-3.6,2.9-8.5,3.3-12.5,0.9C80.3,76,82.4,75.2,84.6,74.9z"/>
	<path class="st3" d="M70.5,91.7c2.2,0.2,4.3,1.1,6.1,2.4c-1.9,1.1-4.2,1.6-6.4,1.5c-2.2-0.2-4.3-1.1-6.1-2.4
		C66,92.2,68.2,91.6,70.5,91.7z"/>
	<path class="st3" d="M78.8,61.8c-2.1-0.7-4-1.9-5.5-3.6c4.3-1.5,9.1-0.2,12,3.4C83.2,62.3,81,62.3,78.8,61.8z"/>
	<path class="st3" d="M73.7,47.9c-2.1-0.7-4-1.9-5.5-3.6c4.3-1.5,9.1-0.1,12,3.4C78.1,48.4,75.9,48.5,73.7,47.9z"/>
	<path class="st3" d="M84.3,94.6c-0.8-1.1-1.3-2.4-1.3-3.8c2.7,0.9,4.5,3.3,4.6,6.1C86.3,96.5,85.1,95.7,84.3,94.6z"/>
	<path class="st3" d="M92.3,88.7c1,2,1.4,4.2,1.2,6.5c-4.1-2.1-6.5-6.5-5.9-11.1C89.6,85.1,91.2,86.7,92.3,88.7z"/>
	<path class="st3" d="M74.2,33c-1.9,1.1-4.2,1.6-6.4,1.5c1.8-4.2,6.1-6.8,10.7-6.5C77.6,30.1,76.1,31.8,74.2,33z"/>
	<path class="st3" d="M89.2,56.1c-0.4,2.2-1.5,4.2-3,5.9c-0.9-2-1.2-4.3-0.9-6.5c0.4-2.2,1.5-4.2,3-5.9
		C89.1,51.7,89.5,53.9,89.2,56.1z"/>
	<path class="st3" d="M97.5,48.8c0.3,2.2,0.1,4.5-0.8,6.5c-1.6-1.6-2.6-3.6-3.1-5.8c-0.3-2.2-0.1-4.5,0.8-6.5
		C96,44.7,97.1,46.7,97.5,48.8z"/>
	<path class="st3" d="M82.3,52.7c-2.1,0.6-4.4,0.6-6.6,0c2.8-3.7,7.5-5.2,11.9-3.8C86.3,50.6,84.4,51.9,82.3,52.7z"/>
	<path class="st3" d="M75.1,22.2c-1.9,1.1-4.2,1.6-6.4,1.5c1-2,2.5-3.7,4.3-4.9c1.9-1.1,4.2-1.6,6.4-1.5
		C78.4,19.3,76.9,21,75.1,22.2z"/>
	<path class="st3" d="M76.4,10.6c-2.2,0.2-4.5-0.3-6.4-1.4c3.5-3,8.5-3.5,12.5-1.2C80.7,9.4,78.7,10.3,76.4,10.6z"/>
	<path class="st3" d="M83.6,19.2c-1-2-1.3-4.3-1.1-6.5c1.9,1.1,3.5,2.7,4.6,4.6c1,2,1.3,4.3,1.1,6.5C86.2,22.8,84.6,21.2,83.6,19.2z
		"/>
</g>
<path class="st1" d="M37.9,71.3c-0.6,1-1.4,1.9-2.5,2.6c-0.5,0.3-1.1,0.5-1.7,0.5c-0.6,0-1.2-0.1-1.8,0c-2.4,0.1-4.7,0.3-7.1,0.5
	c-1.2,0.1-2.4,0.2-3.6,0.3c-1.2,0.2-2.4,0.1-3.6-0.2c-1.1-0.5-2.1-1.1-3-2c-0.9-0.8-1.5-1.9-1.7-3.1v-0.1l0.1,0.1
	c0.8,0.3,1.6,0.4,2.5,0.3c0.9-0.1,1.7-0.2,2.5-0.3c1.7-0.3,3.3-0.8,4.9-1.4c1.6-0.6,3.2-1.4,4.6-2.3c1.5-0.8,2.6-2.1,3.3-3.7l0,0
	c0.3-0.4,0.5-0.8,0.7-1.3c0-0.1,0.1-0.2,0.1-0.3c0-0.1,0-0.1,0-0.2l0,0l0,0c0,0,0,0.1,0.1,0.1c0,0,0.1,0,0.1-0.1l0,0v0.1
	c-0.2,0.3-0.4,0.4-0.6,0.5c-0.4,0.2-0.9,0.4-1.4,0.5c-0.2,0.1-0.5,0.2-0.7,0.2c-0.3,0-0.5,0-0.8,0c-1-0.3-1.8-0.8-2.5-1.5
	c-0.2-0.2-0.4-0.4-0.5-0.6c-0.1-0.1-0.1-0.3-0.1-0.4c0-0.2,0.1-0.3,0.2-0.4c0.4-0.3,0.8-0.6,1.2-0.8c0.4-0.2,0.9-0.5,1.3-0.7
	l0.7-0.3c0.1,0,0.2-0.1,0.4-0.1c0.2,0,0.3,0,0.5,0.1c0.4,0.3,0.7,0.8,0.9,1.2c0.2,0.4,0.4,0.9,0.6,1.3c0.2,0.5,0.2,0.9,0.7,1.1
	c0.4,0.2,0.9,0.4,1.3,0.6c0.9,0.4,1.8,0.9,2.6,1.4L35.5,63c-0.8-0.5-1.5-1.2-1.9-2.1c-0.5-0.8-0.9-1.7-1.3-2.5s-0.9-1.6-1.4-2.4
	c-0.3-0.4-0.5-0.7-0.8-1.1c-0.1-0.2-0.3-0.3-0.5-0.4c-0.2-0.1-0.3-0.2-0.4,0v0h0c-0.4,0.2-0.7,0.5-1,0.9c-0.2,0.3,0.3,0.4,0.7,0.4
	c0.9-0.2,1.6-0.8,2.1-1.5c0.2-0.4,0.3-0.8,0.2-1.2c-0.2-0.4-0.6-0.6-1-0.5c-0.9,0.1-1.7,0.5-2.5,1c-1.5,1-2.9,2.3-4.1,3.7
	c-1.2,1.4-2.4,2.8-3.5,4.3v-0.2c1.2,2,3,3.5,5.2,4.3c1.1,0.4,2.3,0.5,3.4,0.3c1.1-0.2,2.2-0.7,3.1-1.4l0.1-0.1l0.1,0.1
	c0.6,0.7,1.5,1.2,2.4,1.5c0.9,0.3,1.9,0.2,2.7-0.3L37,66c-0.2-0.2-0.5-0.3-0.8-0.2c-0.3,0-0.7,0-1,0.1c-0.7,0.1-1.3,0.3-2,0.5
	c-0.6,0.2-1.3,0.5-1.9,0.7c-0.3,0.1-0.6,0.3-0.9,0.5c-0.3,0.1-0.5,0.3-0.7,0.6l0,0c0,0,0.1,0.1,0.1,0.1c0.1,0.1,0.3,0.2,0.4,0.2
	c0.3,0.1,0.6,0.2,1,0.3c0.7,0.1,1.3,0.2,2,0.2c0.7,0,1.3-0.1,2-0.4c0.6-0.2,1.1-0.6,1.4-1.2l0.2,0.3c-1.2-0.1-2.5,0-3.6,0.5
	c-1.1,0.5-2.2,1.2-3.1,2c-0.2,0.2-0.5,0.4-0.7,0.7c-0.1,0.1-0.2,0.2-0.3,0.3c0,0,0,0.1,0,0l0,0c0,0,0-0.2-0.1-0.2s-0.2,0-0.1,0
	c0.1,0,0.2,0,0.3,0c0.6,0,1.3,0,1.9,0.1c1.3,0.1,2.5,0.2,3.8,0.3l0,0c1.1-0.1,2.2-0.6,3-1.3c0.8-0.8,1.3-1.8,1.5-2.9
	c0.2-1.1,0.2-2.3,0-3.4v-0.2v-0.1l0,0c0,0,0.1,0.1,0.1,0.1s0,0,0,0h-0.2c-0.3,0-0.5,0.1-0.8,0.2c-0.5,0.1-1,0.4-1.5,0.7
	c0,0,0,0,0-0.1s0,0,0,0c0.1,0,0.2,0.1,0.4,0.1c0.3,0,0.6,0,0.9,0.1c0.3,0.1,0.6,0.3,0.9,0.6c0.2,0.3,0.3,0.6,0.3,1
	c0,0.2,0,0.3,0,0.4v0.2l0,0c0,0-0.1,0-0.1,0l0,0c0,0,0,0,0.1-0.1s0.1-0.2,0.2-0.4c0.2-0.5,0.5-1.1,0.8-1.6c0.2-0.3-0.2-0.9-0.5-1.3
	c-0.4-0.5-0.9-1-1.3-1.4c-0.9-0.7-1.8-1.4-2.8-2l-0.2-0.1c-0.1,0-0.2-0.1-0.2-0.2c-0.1-0.1-0.2-0.3-0.2-0.4
	c-0.2-0.3-0.3-0.5-0.4-0.8c-0.2-0.5-0.4-1.1-0.6-1.6c-0.4-1.1-0.8-2.2-1.1-3.3l-0.3-0.8l-0.1-0.2c0-0.1,0,0,0-0.1
	c-0.1-0.1-0.2-0.2-0.3-0.2c-0.5-0.3-1-0.6-1.5-0.8c-1-0.5-2.1-1-3.1-1.4c-0.5-0.2-1.1-0.4-1.6-0.5c-0.5-0.2-1.1-0.3-1.6-0.2
	c-1.1,0.2-2.2,0.6-3.1,1.2c-1.9,1.3-3.6,2.8-5,4.7l-0.4,0.5l-0.1-0.7c-0.4-2.4-0.3-4.8,0.4-7.1c0.7-2.3,1.7-4.4,3-6.4
	c0.7-1,1.4-1.9,2.2-2.8c0.2-0.2,0.4-0.4,0.6-0.7l0.1-0.1h0.1h0.1c0,0,0,0,0.1,0c0.1,0,0.2,0.1,0.2,0.2c0,0,0,0,0,0.1v0.1
	c0,0,0,0.1,0,0.1c0,0,0,0.1,0,0.1c0,0.1,0,0.3,0,0.4c0,0.6,0,1.1,0.1,1.7c0.2,2.3,0.6,4.6,1.1,6.9l0.1,0.5l-0.5-0.1
	c-1.2-0.2-2.5-0.2-3.7-0.1c-1.2,0.1-2.5,0.4-3.6,0.8c-0.6,0.3-1.3,0.4-1.9,0.5c-0.7,0.1-1.4-0.1-2-0.5c-0.6-0.4-1-0.9-1.3-1.5
	c-0.3-0.6-0.5-1.2-0.6-1.9l0.6,0.1C10,47.5,9.3,49.7,8.8,52c-0.3,1.1-0.4,2.3-0.5,3.4c0,1.1,0,2.4,0.7,3l-0.3-0.1
	c0.9-0.2,1.8-0.5,2.6-1c0.8-0.5,1.5-1.1,2-1.9c0.9-1.6,1.3-3.5,1.1-5.4c-0.2-1.9-0.6-3.8-1.3-5.6c-0.3-0.9-0.7-1.8-1.2-2.6
	c-0.2-0.4-0.5-0.8-0.8-1.2c-0.1-0.2-0.3-0.4-0.4-0.5c-0.1-0.1-0.2-0.2-0.3-0.2l0.2-0.1c-0.5,0.6-0.9,1.3-1.2,2.1
	c-0.4,0.8-0.7,1.6-1,2.4c-0.6,1.6-1.2,3.2-1.7,4.8L5.1,54c-0.5,1.6-1.1,3.2-1.6,4.8c-0.9,3.3-1.6,6.6-2.1,10
	c-0.5,3.3-0.7,6.7-0.5,10.1l0,0l0,0c-0.1,11.8,3.3,23.4,9.7,33.4c6.5,9.9,15.8,17.6,26.7,22.3c5.4,2.3,11.1,3.9,16.9,4.8
	c5.8,0.8,11.7,0.8,17.6,0.2c11.8-1.2,22.9-5.7,32.2-13c9.2-7.5,15.7-17.7,18.6-29.2c1.5-5.7,2.1-11.6,1.9-17.5
	c-0.4-5.8-2.5-11.5-5.1-16.7c-1.3-2.7-2.7-5.2-4.2-7.8s-3.1-5-4.7-7.5c-3.2-5-6.6-9.8-9.9-14.8c-3.3-4.9-6.3-10-9.1-15.3
	c-1.3-2.7-2.5-5.4-3.4-8.2c-1-2.8-1.5-5.8-1.7-8.8l0.4,0.1c-1.5,2.8-3,5.7-4.2,8.7c-1.3,3-2.2,6.1-2.8,9.2c-0.6,3.2-0.7,6.4-0.4,9.6
	c0.4,3.2,1.2,6.3,2.5,9.3h-0.1c-2.7-6-3.5-12.6-2.3-19c0.6-3.2,1.5-6.3,2.7-9.3c1.2-3,2.7-5.9,4.2-8.7L86.9,0v0.8
	c0.3,5.9,2.5,11.5,5.1,16.8c2.7,5.2,5.8,10.3,9.1,15.2c3.3,4.9,6.7,9.8,9.9,14.7c1.6,2.5,3.2,5,4.8,7.5s3,5.1,4.3,7.8
	c2.6,5.3,4.8,11,5.2,17c0.4,9-1.2,17.9-4.7,26.2c-1.2,2.7-2.6,5.4-4.2,7.9c-3.2,5.1-7.2,9.5-11.9,13.3c-9.4,7.4-20.8,12-32.7,13.2
	c-5.9,0.7-11.9,0.6-17.8-0.2c-5.9-0.8-11.7-2.5-17.2-4.8c-11-4.8-20.4-12.6-27-22.7c-1.6-2.5-3.1-5.1-4.3-7.8
	c-1.3-2.7-2.3-5.5-3.1-8.4c-0.5-1.5-0.8-2.9-1.1-4.4s-0.6-2.9-0.7-4.4c-0.4-3-0.6-5.9-0.6-8.9l0,0c-0.1-3.4,0-6.9,0.6-10.3
	c0.5-3.4,1.2-6.7,2.2-10c0.5-1.7,1.1-3.3,1.6-4.9L6,48.8c0.6-1.6,1.1-3.2,1.7-4.8c0.3-0.8,0.6-1.6,1-2.4c0.3-0.8,0.8-1.6,1.4-2.3
	l0.1-0.1h0.1c0.1,0,0.2,0,0.3,0.1l0.2,0.1c0.1,0.1,0.2,0.2,0.3,0.3c0.2,0.2,0.4,0.4,0.5,0.6c0.3,0.4,0.6,0.8,0.8,1.3
	c0.5,0.9,0.9,1.8,1.2,2.7c0.7,1.9,1.2,3.8,1.3,5.8c0.2,2-0.2,4.1-1.2,5.8c-0.6,0.9-1.3,1.6-2.2,2.1c-0.9,0.5-1.8,0.8-2.8,1H8.6
	l-0.1-0.1c-0.5-0.5-0.8-1.1-0.9-1.8c-0.1-0.6-0.1-1.2-0.1-1.8c0.1-1.2,0.2-2.4,0.5-3.5c0.5-2.3,1.2-4.6,2-6.8l0.4-1.1l0.2,1.2
	c0.2,1.2,0.8,2.2,1.7,3c0.5,0.3,1,0.5,1.6,0.4c0.6-0.1,1.2-0.3,1.7-0.5c1.2-0.5,2.5-0.8,3.8-0.9c1.3-0.1,2.6-0.1,3.9,0.1l-0.4,0.4
	c-0.4-2.3-0.8-4.6-1.1-6.9c-0.1-0.6-0.1-1.2-0.1-1.8c0-0.2,0-0.3,0-0.5c0-0.1,0.1-0.2,0.1-0.3s0,0,0,0c0,0,0,0.1,0,0.1l0,0
	c0,0.1,0.1,0.2,0.2,0.2c0,0,0.1,0,0.1,0l0,0h0.1l0,0c-0.2,0.2-0.4,0.4-0.6,0.6c-2.3,2.6-4,5.7-5.1,9c-0.7,2.2-0.8,4.5-0.4,6.8
	l-0.5-0.1c1.4-1.9,3.1-3.5,5.1-4.8c1-0.7,2.1-1.1,3.3-1.3c0.6,0,1.2,0.1,1.8,0.3c0.6,0.2,1.1,0.4,1.7,0.6c1.1,0.4,2.2,0.9,3.2,1.4
	c0.5,0.3,1,0.6,1.5,0.9c0.1,0.1,0.3,0.2,0.4,0.3c0.1,0.1,0.2,0.3,0.2,0.5l0.3,0.8c0.3,1.1,0.7,2.2,1.1,3.3c0.2,0.5,0.4,1.1,0.6,1.6
	c0.1,0.3,0.2,0.5,0.4,0.8s0.1,0.2,0.2,0.3s0,0,0.1,0.1l0.2,0.1c1,0.6,1.9,1.3,2.8,2.1c0.5,0.4,0.9,0.8,1.3,1.3
	c0.2,0.2,0.4,0.5,0.5,0.8c0.2,0.3,0.2,0.7,0.1,1.1c-0.3,0.5-0.6,1-0.8,1.5l-0.2,0.4c-0.1,0.2-0.3,0.4-0.5,0.4H39
	c-0.1,0-0.1-0.1-0.2-0.1c-0.1-0.1-0.1-0.1-0.1-0.2c0-0.1,0-0.2,0-0.3c0-0.2,0-0.3,0-0.4c0-0.5-0.3-0.9-0.8-1
	C37.7,65,37.4,65,37.2,65c-0.2,0-0.3,0-0.5-0.1c-0.1,0-0.2,0-0.3-0.2c0-0.1,0-0.2,0-0.3c0-0.1,0.1-0.1,0.1-0.2
	c0.5-0.4,1.1-0.7,1.7-0.8c0.3-0.1,0.6-0.2,0.9-0.2h0.2c0.1,0,0.3,0,0.4,0.1c0.1,0,0.1,0.1,0.1,0.2v0.1v0.1v0.2
	c0.2,1.2,0.2,2.4,0,3.6c-0.2,1.2-0.8,2.3-1.6,3.2c-0.9,0.8-2.1,1.3-3.3,1.4l0,0c-1.3-0.1-2.5-0.2-3.8-0.3c-0.6-0.1-1.2-0.1-1.9-0.1
	H29c-0.1,0-0.1,0-0.2,0c-0.1-0.1-0.1-0.1-0.1-0.2c0,0,0-0.1,0-0.1c0-0.1,0-0.1,0.1-0.2c0.1-0.1,0.2-0.3,0.3-0.4
	c0.2-0.2,0.5-0.5,0.7-0.7c1-0.9,2.1-1.6,3.2-2.1c1.2-0.5,2.5-0.7,3.8-0.6h0.3L37,67.6c-0.4,0.7-1,1.2-1.7,1.4
	c-0.7,0.2-1.4,0.4-2.1,0.4c-0.7,0-1.4,0-2.1-0.2c-0.3-0.1-0.7-0.2-1-0.3c-0.2-0.1-0.3-0.2-0.5-0.3c-0.1-0.1-0.2-0.2-0.2-0.3
	c-0.1-0.1-0.1-0.3,0-0.4c0.2-0.3,0.5-0.6,0.9-0.7c0.3-0.2,0.6-0.3,0.9-0.5c0.7-0.3,1.3-0.5,2-0.8c0.7-0.2,1.3-0.4,2-0.5
	c0.4-0.1,0.7-0.1,1.1-0.1c0.4,0,0.8,0.1,1.1,0.4l0.2,0.2L37.3,66c-0.9,0.5-2,0.6-3,0.3c-1-0.3-1.9-0.8-2.5-1.6h0.3
	c-0.9,0.8-2.1,1.3-3.3,1.5c-1.2,0.2-2.4,0.1-3.6-0.3c-2.3-0.8-4.2-2.4-5.4-4.5l0-0.1l0.1-0.1c1.1-1.5,2.3-2.9,3.5-4.3
	c1.2-1.4,2.6-2.7,4.2-3.7c0.8-0.5,1.7-0.9,2.6-1c0.3,0,0.5,0,0.8,0.1c0.3,0.1,0.4,0.3,0.5,0.6c0.1,0.5,0,1-0.2,1.5
	c-0.5,0.9-1.3,1.5-2.3,1.7c-0.2,0.1-0.5,0.1-0.8,0c-0.3-0.1-0.4-0.3-0.4-0.6c0,0,0-0.1,0.1-0.1c0.3-0.4,0.6-0.8,1.1-1l-0.1,0.1
	c0.1-0.2,0.2-0.3,0.4-0.3c0.1,0,0.3,0.1,0.4,0.2c0.2,0.1,0.4,0.3,0.5,0.5c0.3,0.3,0.6,0.7,0.8,1c0.5,0.8,1,1.6,1.4,2.4
	s0.8,1.7,1.3,2.5c0.4,0.8,1,1.5,1.8,1.9L35.4,63c-0.8-0.5-1.7-1-2.6-1.4c-0.4-0.2-0.9-0.4-1.3-0.6c-0.2-0.1-0.4-0.3-0.5-0.6
	c-0.1-0.2-0.2-0.5-0.2-0.7c-0.2-0.5-0.3-0.9-0.6-1.3c-0.2-0.4-0.5-0.8-0.8-1.1c-0.1-0.1-0.1-0.1-0.2-0.1l-0.3,0.1
	c-0.2,0.1-0.5,0.2-0.7,0.3c-0.4,0.2-0.9,0.4-1.3,0.7c-0.4,0.2-0.8,0.5-1.2,0.8c0,0-0.1,0.1-0.1,0.1c0,0,0,0.1,0,0.1
	c0,0.1,0,0.2,0.1,0.3c0.1,0.2,0.3,0.4,0.5,0.5c0.7,0.7,1.5,1.2,2.4,1.4c0.5,0.1,0.9,0.1,1.4-0.1c0.5-0.1,0.9-0.3,1.4-0.5
	c0.2-0.1,0.5-0.2,0.5-0.4s0,0,0,0l0,0c0,0,0-0.1,0.1-0.1s0.1,0.1,0.1,0.1v0.1c0,0.1,0,0.1,0,0.2c0,0.1,0,0.3-0.1,0.4
	c-0.2,0.5-0.4,0.9-0.7,1.3l0,0c-0.7,1.6-1.9,3-3.4,3.8c-1.5,0.9-3,1.7-4.6,2.3c-1.6,0.6-3.3,1.1-5,1.4c-0.8,0.2-1.7,0.3-2.6,0.3
	c-0.9,0.1-1.8,0-2.6-0.3l0.1-0.1c0.2,1.2,0.8,2.2,1.6,3c0.8,0.8,1.8,1.5,2.9,1.9c1.1,0.3,2.3,0.4,3.5,0.2c1.2-0.1,2.4-0.2,3.6-0.3
	c2.4-0.2,4.7-0.5,7.1-0.5c0.6,0,1.2,0,1.8,0.1c0.6,0,1.2-0.2,1.7-0.5c1-0.6,1.9-1.5,2.4-2.5L37.9,71.3z"/>
<path class="st4" d="M23.9,14.9"/>
<path class="st4" d="M113.7,97.1"/>
</svg>
